<?xml version="1.0" encoding="UTF-8"?><svg id="a" xmlns="http://www.w3.org/2000/svg" viewBox="0 0 97.793096 60.340457"><path d="m97.406165,26.438004L84.289393,1.827845c-.446656-.828766-1.211666-1.441859-2.119546-1.698634-.90996-.256054-1.885814-.128388-2.697288.35488l-5.647035,3.294152c-.768475.451527-1.332344,1.18146-1.573012,2.03835-.240668.856162-.138717,1.772227.282974,2.555544l.341234.665063c-3.467843.266123-9.900968-1.107906-13.739524-2.230218v-.000722c-.132399-.021639-.267719-.021639-.400186,0l-10.523308-.073574c-3.953551.240939-7.736344,1.689943-10.833822,4.150932-.122276.094464-.227977.209874-.311897.33971l-.741078,1.151879c-3.464999-.719785-6.816463-1.907799-9.959508-3.53068l.178041-.295738v.000763c.524685-.823751.67734-1.829196.420442-2.771243-.256204-.941291-.898797-1.731813-1.769433-2.177577l-5.528367-2.954396c-.779362-.434223-1.69848-.548908-2.561072-.320257-.863423.228652-1.602975.78332-2.063297,1.54644L.503998,25.758792c-.492103.807868-.631052,1.780876-.385,2.693336.246052.91246.856853,1.684957,1.689829,2.137161l5.528366,2.954395c.514489.276249,1.089874.423355,1.674621.428419,1.211457.007212,2.337465-.621022,2.964243-1.654647l.207723-.339712c1.315701,1.736835,2.80507,3.335164,4.446399,4.771337-1.482156,1.743354-2.490188,4.298877-.622408,6.544236h-.000693c1.05582,1.022735,2.456205,1.617818,3.928165,1.669003-.2157.91315-.2157,1.863897,0,2.776978.256204,1.008382.846709,1.900588,1.674621,2.533193.828675.6326,1.846905.968706,2.889824.953588h.282212c.502214-.035374.998669-.124081,1.482157-.266195-.081079.962949.119363,1.928676.576772,2.780656.458102.851843,1.15285,1.552968,2.001778,2.020224.840953.592935,1.845448.912462,2.875326.916066.282977-.00291.565953-.027394.845321-.074277.377025-.064922.744616-.173879,1.096395-.324592.364746,1.281021,1.127464,2.413409,2.179054,3.23508l.148353.103137h-.000693c.790252.480363,1.69855.730673,2.623355.724154,2.173921-.098835,4.144627-1.30405,5.217092-3.190901l.296708-.310167c.592726.310167,1.155763.590712,1.660198.812172,2.422913,1.516139,5.191705,2.395445,8.047543,2.555524.84026.023092,1.67899-.076431,2.490189-.294975,1.928607-.586416,3.533733-1.930898,4.446402-3.722592,1.600755,0,4.565138-.310162,5.928485-2.28926v-.000693c.672344-.955742.992216-2.114831.903927-3.279058,1.929993.036067,3.774888-.793372,5.024695-2.26048.619361-1.021346.914124-2.205617.844768-3.397164.468854-.036829.934237-.106047,1.392688-.20703,1.337889-.332497,2.524589-1.105759,3.36658-2.194174.84199-1.088418,1.290731-2.428533,1.273391-3.803394.013181-.494097-.021499-.988959-.10473-1.47723,2.314442-1.225466,4.33619-2.933517,5.928627-5.007148l.341234.620326c.432094.846779,1.201262,1.47432,2.119546,1.728164.303092.088778.617969.133444.933544.132751.619355-.000693,1.227614-.163754,1.76375-.47246l5.631774-3.309294h.000688c.753225-.450056,1.305997-1.16991,1.545279-2.012318.23997-.843173.147728-1.744743-.255929-2.522301v-.000624ZM8.745276,30.869561l-5.52836-2.954395h-.000721c-.11507-.044734-.206982-.136285-.251855-.251003-.052829-.122623-.052829-.261821,0-.384444L17.548327,3.49682v.000721c.087528-.145705.245314-.235133.415378-.236576.094117-.003607.187472.022361.266331.073573l5.528365,2.954394c.11867.059869.20481.168066.23734.295738.052849.122615.052849.261115,0,.383751l-1.097157,1.802446-13.457172,21.965941c-.15633.224371-.457339.294282-.696898.162296l.000763-.029545Zm13.012734,10.340415c-.420511.445757-.969817.750093-1.57121.871329-.746834.001458-1.466897-.277704-2.016204-.782622-1.022597-1.240655,1.482087-3.53068,1.482087-3.53068.503738-.362807,1.113038-.549653,1.734754-.531622.324174.062768.605001.261824.770694.54674.056456.088709.126646.168053.207029.235885.478355.543827.610063,1.308415.340821,1.979998-.236644.235813-.577535.649874-.948039,1.196614l.000069.014359Zm2.815819,7.119897c-.812723.085103-1.571142-.416902-1.808479-1.195918-.061522-1.479315.411769-2.932065,1.33373-4.09185.40456-.463026.771457-.957123,1.097157-1.477162,1.882277-2.703461,3.394048-3.426924,4.327592-3.545107v-.000693c.584053-.084408,1.178927.0584,1.660195.398871l.178038.147869c.667214.442844.073795,2.496431-.963298,4.431556l-2.490118,3.486014c-.844559,1.003318-2.033683,1.656798-3.334817,1.832063v.014356Zm7.52938,5.406715c-.515946.100983-1.050756-.010821-1.482085-.310167l-.267094-.177414c-1.733922-.886449-.978416-3.309294-.755503-3.914362l.681708-.960038c.64703-.689547,1.23684-1.430348,1.763676-2.215814.178038-.266189.50367-.782619.874245-1.47723.489174-.509911,1.166582-.799129,1.875062-.799129.707787,0,1.385126.289218,1.875062.799129,1.333801,1.226228.607912,3.116757-.133166,4.431628l-2.446077,3.23508c-.062905.074975-.113606.15938-.148355.251003v.088707c-.489174.527251-1.131833.888603-1.837471,1.034321v.014287Zm9.396537,1.698617c-1.719494,2.599565-3.378856,1.97931-3.80887,1.757781-.460322-.328126-.816329-.780402-1.026203-1.304045-.209874-.523648-.265636-1.096395-.159936-1.650347.554299-.618112,1.050063-1.285323,1.482085-1.993666.347409-.415447.66437-.854684.948802-1.314866,1.031267-.553952,2.273796-.553952,3.305132,0,.889434.60583.948802,1.167.963229,1.344482-.016647.723392-.266332,1.422373-.711393,1.993666-.225757.335339-.478355.651258-.755506.945608-.086834.065615-.166455.139892-.23734.221386Zm32.755095-13.545672c-.715761.154319-1.449556.203355-2.179191.147869l-11.960519-7.828792c-.328613-.223609-.732408-.306558-1.122472-.229363-.390064.076431-.732408.305794-.950953.63614-.218545.331111-.294557.735737-.211332,1.122334.08323.387357.319184.724916.654247.937634l11.930627,7.799247c.253844.726376.190039,1.524812-.176858,2.201389-.874591,1.181493-3.36478,1.063932-4.446677.886518l-10.018879-6.086272h-.000693c-.696204-.421204-1.602978-.203424-2.030701.487578-.207723.333952-.272846.737888-.180948,1.120183.091898.382989.33291.713335.670196.918214l10.063608,6.115751c.480575.605899.480575,1.461345,0,2.067943-.592654.82729-2.623355,1.09348-4.016525,1.034321l-8.641034-5.303721c-.695442-.432025-1.610952-.220693-2.045126.472458-.43348.693849-.221455,1.606306.473987,2.039093l7.737106,4.771337c-.545703.900181-1.406144,1.568784-2.415701,1.87603-3.453556,1.063937-8.077927-1.890455-8.122037-1.920003l-.207723-.118255c-.429872-.177414-.903858-.413299-1.408293-.679488v-.000693c.309749-.747251.44146-1.556577.385693-2.363685-.167148-1.493809-1.028352-2.823099-2.326711-3.589214-1.074756-.57705-2.277542-.877089-3.498431-.871332.219307-.884301.196834-1.81049-.06367-2.683139-.260504-.872094-.749749-1.659711-1.418418-2.280802-1.136965-1.119487-2.703807-1.695775-4.297975-1.580365.315506-.835265.358923-1.748418.125189-2.610383-.234496-.861275-.734557-1.627946-1.429305-2.190499-1.081203-.861966-2.46425-1.255776-3.839249-1.09348-1.53785.19614-2.971526.87993-4.09032,1.950246-.204813-.398109-.464624-.765978-.770764-1.093482-.623102-.870567-1.566078-1.459893-2.623354-1.639458-1.013165-.141418-2.045889.023097-2.964242.47246-1.917926-1.636613-3.620707-3.507654-5.068739-5.56908l10.967608-17.903849v.000763c3.133544,1.557963,6.415579,2.800006,9.796657,3.707402l-4.446399,7.060598c-.352401.558323-.292337,1.281021.148355,1.77297,1.385195,1.837818,3.63437,2.818107,5.928556,2.585069,3.957085-.517126,6.96634-4.978298,8.15172-7.002269v.000693c1.542147.028159,3.082981-.11104,4.594755-.41399l21.787623,15.229934,3.868035,2.703461c.248992.189693.516705.353444.800378.487578l.221942.132682c.276735.117559.564562.206334.860024.266189.027743.314466.027743.630385,0,.944849.015954.693915-.197664,1.373337-.607566,1.933877-.409896.560405-.99319.970857-1.660401,1.168455l.074901.000347Zm3.290985-7.002338h-.074213l-.000693.000765c-.176165.036757-.357187.036757-.533352,0-.086696-.03898-.171313-.082952-.251765-.133444-.098486-.040435-.192812-.090165-.282281-.147175l-5.928627-4.180623-20.408809-14.181329c-.13532-.093008-.28589-.162988-.44437-.20696-.112916-.013733-.227979-.013733-.340821,0h-.103481l-5.72083.369256h-.000765c-.174363.014426-.345189.059162-.50367.132749l-.162849.118253c-.10133.051948-.191772.121928-.267025.20703-.052156.047579-.096959.101676-.133163.162295-.052852.058398-.097724.122623-.133928.192604-.770695,1.477162-3.586513,5.908788-6.387975,6.322015h.000762c-.925636.098835-1.847596-.214936-2.520012-.856904l6.180321-9.704966c2.53867-1.943865,5.595575-3.100113,8.78918-3.32372l10.271337.073588c1.838233.517125,10.967816,3.027842,15.829035,2.112541l7.410784,13.67849,2.149368,4.018398c-1.808828,2.127104-4.581023,5.081499-6.507063,5.347622l.074907-.000487Zm17.147795-6.396436l-5.765638,3.294869c-.123461.052711-.262173.052711-.384931,0-.13178-.043279-.242748-.131986-.312109-.251003l-1.363553-2.570713v-.088707l-2.741679-5.126236-8.981712-16.765634c-.123456-.237318-.03884-.529435.192812-.665042l5.631774-3.294153c.074213-.049049.162989-.075016.25177-.073574h.133854c.133166.038951.245526.129115.311416.251016l13.190286,24.624877c.108889.249614.005546.539528-.237197.665063l.074907-.000765Z" style="fill:#fff;"/></svg>