<?xml version="1.0" encoding="UTF-8"?><svg id="a" xmlns="http://www.w3.org/2000/svg" viewBox="0 0 90.549537 90.549534"><path d="m45.274771,0C20.270206,0,0,20.270204,0,45.274769s20.270206,45.274766,45.274771,45.274766,45.274766-20.270201,45.274766-45.274766h0C90.549537,20.270204,70.279336,0,45.274771,0Zm0,81.524664c-20.020265,0-36.249901-16.22963-36.249901-36.249895S25.254506,9.024868,45.274771,9.024868s36.249895,16.229635,36.249895,36.249901h0c0,20.020265-16.22963,36.249895-36.249895,36.249895Z" style="fill:#fff;"/><path d="m40.461506,35.949068c1.220247-2.133714,3.567335-3.365937,6.01658-3.158702,1.683172-.083956,3.304806.642979,4.362023,1.955388,1.311881,1.249769,2.023995,3.002667,1.955388,4.813266,0,.830716.673429,1.504145,1.504145,1.504145h6.01658c.667984-.015068,1.261348-.430425,1.504145-1.052903v-.30083c.109989-.12337.164384-.286554.150412-.451242.106426-3.969726-1.479409-7.797606-4.362023-10.529016-2.973467-2.874351-6.999235-4.397615-11.130676-4.211605-5.09679-.276089-10.017664,1.904757-13.23647,5.866163-3.1761,4.013982-4.828029,9.023075-4.662848,14.138966v1.504145c-.191753,5.11969,1.463137,10.13774,4.662848,14.138966,3.00829,3.910775,7.520726,5.866168,13.236476,5.866168,3.985941.020777,7.840405-1.424647,10.829846-4.061199,2.94328-2.393668,4.65521-5.983198,4.662848-9.776943,0-.150412-.150412-.451242-.150412-.60166h-.150412c-.235568-.539978-.76469-.892719-1.353733-.902485h-6.01658c-.830716,0-1.504145.673429-1.504145,1.504145.012095,1.583454-.709997,3.083192-1.955388,4.061193-1.204979,1.062697-2.755383,1.650782-4.362023,1.654557-2.449245.207234-4.796333-1.024988-6.01658-3.158702-1.472656-2.611575-2.201002-5.576969-2.105805-8.573628v-1.504145c-.099822-3.044926.62794-6.059936,2.105805-8.724041Z" style="fill:#fff;"/></svg>