<?xml version="1.0" encoding="UTF-8"?><svg id="a" xmlns="http://www.w3.org/2000/svg" viewBox="0 0 96.32463 96.400729"><path d="m65.044075,86.090719c-.410727-.410632-.968067-.641427-1.548902-.641427h-13.141762v-19.131902c0-.05866-.028319-.109522-.033232-.168182v-.000963c5.152117-.563212,9.914888-3.006874,13.37737-6.863325,3.462394-3.856358,5.379825-8.854066,5.386858-14.036427,0-1.209548-.979811-2.190229-2.190321-2.190229-1.209548,0-2.190329.980682-2.190329,2.190229,0,5.947182-3.171969,11.442404-8.323124,14.415947-5.149997,2.973539-11.495189,2.973539-16.646244,0-5.150092-2.973543-8.323124-8.468766-8.323124-14.415947,0-1.209548-.979717-2.190229-2.190228-2.190229-1.209549,0-2.190327.980682-2.190327,2.190229.00684,5.220411,1.952694,10.251351,5.459198,14.118593,3.507469,3.866184,8.325145,6.293275,13.520319,6.807454,0,.050855-.030344.091892-.030344.144679v19.129977h-13.1486c-.580743,0-1.138171.230692-1.548802.641427l-6.570883,6.570875c-.625819.626788-.813557,1.568362-.474204,2.386833.339255.818368,1.137208,1.352397,2.023009,1.352397h43.805937c.885898,0,1.683851-.534029,2.02311-1.352397.339347-.818376.15161-1.760045-.474208-2.386833l-6.571169-6.57078Zm-33.497759,5.929647l2.190229-2.190329h28.851925l2.190226,2.190329H31.546316Z" style="fill:#fff;"/><path d="m48.162506,60.805981c4.123465-.004913,8.075764-1.644644,10.991507-4.560586,2.914979-2.914975,4.554619-6.868234,4.559528-10.990541v-21.026801c0-5.555909-2.963717-10.690396-7.775422-13.468495-4.811896-2.778032-10.739136-2.778032-15.551031,0-4.811899,2.778099-7.775422,7.912393-7.775422,13.468495v21.026801c.004817,4.122498,1.644648,8.075856,4.559528,10.990541,2.915747,2.915747,6.868234,4.555578,10.991507,4.560586h-.000195Zm-11.170573-36.576677c0-3.991403,2.128773-7.678807,5.585189-9.674363,3.45661-1.99575,7.713871-1.99575,11.170481,0,3.456706,1.995654,5.585093,5.68296,5.585093,9.674363v21.0268c0,3.990345-2.128678,7.677846-5.585093,9.673595-3.456419,1.995845-7.713871,1.995749-11.170481,0-3.456706-1.995654-5.585189-5.68296-5.585189-9.673595v-21.0268Z" style="fill:#fff;"/><path d="m41.869426,36.932984h12.586355c1.209548,0,2.190325-.980777,2.190325-2.190329s-.980777-2.190325-2.190325-2.190325h-12.586355c-1.209548,0-2.190325.980777-2.190325,2.190325s.980777,2.190329,2.190325,2.190329Z" style="fill:#fff;"/><path d="m41.869426,30.361908h12.586355c1.209548,0,2.190325-.980777,2.190325-2.190325s-.980777-2.190229-2.190325-2.190229h-12.586355c-1.209548,0-2.190325.980682-2.190325,2.190229s.980777,2.190325,2.190325,2.190325Z" style="fill:#fff;"/><path d="m41.869426,23.791124h12.586355c1.209548,0,2.190325-.980777,2.190325-2.190327s-.980777-2.190325-2.190325-2.190325h-12.586355c-1.209548,0-2.190325.980777-2.190325,2.190325s.980777,2.190327,2.190325,2.190327Z" style="fill:#fff;"/><path d="m41.869426,43.503767h12.586355c1.209548,0,2.190325-.980777,2.190325-2.190325s-.980777-2.190229-2.190325-2.190229h-12.586355c-1.209548,0-2.190325.980682-2.190325,2.190229s.980777,2.190325,2.190325,2.190325Z" style="fill:#fff;"/><path d="m41.869426,50.074841h12.586355c1.209548,0,2.190325-.980777,2.190325-2.190325s-.980777-2.190329-2.190325-2.190329h-12.586355c-1.209548,0-2.190325.980777-2.190325,2.190329s.980777,2.190325,2.190325,2.190325Z" style="fill:#fff;"/><path d="m74.315894,8.589297c-.859501-.830164-2.225479-.818423-3.070443.026402-.845729.844825-.85748,2.210805-.027353,3.070405,6.10833,6.119119,9.538447,14.410935,9.538447,23.056746,0,8.644748-3.430117,16.937627-9.538447,23.055684-.422383.407744-.662908.968931-.66878,1.556607-.004916.587676.226841,1.151946.64142,1.567491.415548.415545.980781.64634,1.568362.641427.587676-.004913,1.147992-.245438,1.556699-.668879,6.925839-6.941345,10.814562-16.347063,10.814562-26.153388,0-9.806524-3.888723-19.211949-10.814562-26.153353l.000096.000858Z" style="fill:#fff;"/><path d="m25.108074,57.796994c-6.108328-6.11806-9.538449-14.41084-9.538449-23.055687,0-8.645808,3.430121-16.937625,9.538449-23.056647.422385-.407742.662906-.969025.668783-1.555739.004911-.587638-.226845-1.152813-.641427-1.568367-.415545-.415582-.980777-.646329-1.568358-.641445-.587676.004894-1.147996.246409-1.556701.66883-6.925838,6.941326-10.814559,16.347137-10.814559,26.153369,0,9.805561,3.888722,19.211084,10.814559,26.153392.859504.830222,2.225484.818471,3.070443-.026394.845731-.844766.857482-2.210843.027357-3.070348l-.000097-.000963Z" style="fill:#fff;"/><path d="m17.187974,3.765609c.422385-.407742.662906-.968034.668782-1.555681.004913-.587677-.22588-1.152852-.641425-1.568408C16.799786.225939,16.234553-.004805,15.646972.000076c-.587676.005867-1.147996.246409-1.555739.668828C5.066974,9.712701,0,21.966639,0,34.742464c0,12.775055,5.066974,25.028894,14.091233,34.073493.858542.830119,2.225485.818368,3.070444-.026398.844961-.844861.856519-2.21084.026394-3.070443-8.202977-8.22256-12.809365-19.362697-12.809365-30.977038S8.985095,11.987504,17.188071,3.764993l-.000097.000617Z" style="fill:#fff;"/><path d="m82.233493.667911c-.858545-.830159-2.225486-.81842-3.070443.026402-.844861.84482-.856517,2.211801-.026398,3.07042,8.203012,8.222482,12.809349,19.362714,12.809349,30.977059,0,11.61357-4.606337,22.753512-12.809349,30.977038-.422383.407736-.662901.969023-.66878,1.556699-.004909.586714.225886,1.151851.641427,1.567399.415541.415637.980781.646336,1.568354.641515.587676-.004909,1.148-.246492,1.555744-.668875,9.024268-9.043824,14.091233-21.297663,14.091233-34.073489,0-12.776113-5.066964-25.029955-14.091233-34.073523l.000096-.000644Z" style="fill:#fff;"/></svg>