<?xml version="1.0" encoding="UTF-8"?><svg id="a" xmlns="http://www.w3.org/2000/svg" viewBox="0 0 94.88297 94.883127"><path d="m67.515711,0c-8.71985,0-16.482409,4.1134-21.496767,10.486186H11.943922C5.35765,10.486186.000827,15.844706.000827,22.431611l-.000827,61.332498h.03392c.154707,2.707746,1.207037,5.248389,3.071815,7.283696,2.2363,2.438134,5.413162,3.835322,8.71985,3.835322h48.555158l1.136721-.044675,1.191323-1.858954-.416976-.982835c-2.764081-6.525061-2.785474-12.333428-.067839-17.757387l.490594-1.084601-.208482-.323471v-18.575536c1.626487.302795,3.296738.480659,5.009278.480659,15.090088,0,27.367608-12.2773,27.367608-27.367608C94.88297,12.277778,82.60567.001112,67.517476.001112l-.001764-.001112ZM11.825317,90.928143c-2.20072,0-4.316084-.930715-5.80434-2.553983-1.507358-1.644681-2.231217-3.785761-2.036835-6.026931.349117-4.017459,4.017459-7.16192,8.350913-7.16192h45.198276c-.753677,2.135275-1.151612,4.340865-1.235164,6.600249l-42.690674.000827v3.953711h42.879164c.220898,1.702606.600619,3.4308,1.180562,5.188875l-45.841902-.000827Zm46.727406-19.695698H12.335733c-3.206726,0-6.165867,1.202085-8.38141,3.165215V22.430551c0-4.407156,3.58477-7.991714,7.990233-7.991714h31.459405c-2.074894,3.853534-3.25713,8.25497-3.25713,12.930041,0,11.947967,7.709611,22.106722,18.405893,25.830008v18.033559Zm8.962988-20.450306c-12.912672,0-23.415591-10.503552-23.415591-23.413474-.000827-12.912674,10.502705-23.415591,23.415591-23.415591,12.910132,0,23.413477,10.503553,23.413477,23.415591,0,12.910132-10.503552,23.413474-23.413471,23.413474h-.000006Z" style="fill:#fff;"/><path d="m20.845486,60.135881h20.81332v3.953711h-20.81332v-3.953711Z" style="fill:#fff;"/><path d="m20.845486,49.035924h20.81332v3.953711h-20.81332v-3.953711Z" style="fill:#fff;"/><path d="m56.146776,19.796087h4.4169c.434343,0,.78761.353267.78761.789258h3.953711c0-2.616041-2.127015-4.743056-4.741359-4.743056l-4.4169.000827c-2.616038,0-4.743053,2.127015-4.743053,4.743056v13.567105c0,2.613498,2.127015,4.741359,4.743053,4.741359h4.4169c2.613498,0,4.741359-2.127015,4.741359-4.741359h-3.953711c0,.43434-.353267.787607-.78761.787607l-4.4169-.000827c-.435991,0-.789258-.353267-.789258-.787607v-13.567105c-.000827-.435991.35244-.789258.789258-.789258Z" style="fill:#fff;"/><path d="m74.464567,19.796087h4.418593c.434343,0,.78761.353267.78761.789258h3.953717c0-2.616041-2.127015-4.743056-4.741359-4.743056h-4.418593c-2.613498,0-4.741359,2.127015-4.741359,4.743056v13.567105c0,2.613498,2.127015,4.741359,4.741359,4.741359h4.418593c2.613498,0,4.741359-2.127015,4.741359-4.741359h-3.953711c0,.43434-.353267.787607-.78761.787607h-4.418593c-.434343,0-.78761-.353267-.78761-.787607v-13.567105c0-.435991.353267-.789258.78761-.789258h-.000006Z" style="fill:#fff;"/></svg>