<?xml version="1.0" encoding="UTF-8"?><svg id="a" xmlns="http://www.w3.org/2000/svg" viewBox="0 0 63.000099 97.743698"><path d="m.001678,54.634998h3.897871v3.332703H.001678v-3.332703Z" style="fill:#fff;"/><path d="m59.102901,93.848999H3.89788v-31.908798H0v33.856003c0,1.076599.870835,1.947495,1.94753,1.947495h59.103068c1.076603,0,1.947502-.870895,1.947502-1.947495v-6.900703h-3.8978l-.000801,4.951599.003403.0019Z" style="fill:#fff;"/><path d="m61.052101,41.890999h-7.144703v-19.808199C53.907398,9.90564,44.0005,0,31.824699,0,19.649099-.000735,9.74004,9.9062,9.74004,22.0828v19.808199H1.94804C.87143,41.890999.000519,42.761902.000519,43.8386v6.7388h3.897871v-4.7915l55.203111-.000702v38.1152h3.8979l.000698-40.060497c-.002201-1.076599-.872997-1.948902-1.949501-1.948902h.001503ZM13.6394,22.0828C13.6394,12.0567,21.7973,3.89882,31.8234,3.89882c10.025999,0,18.183901,8.15788,18.183901,18.18398v19.808199h-3.815502v-16.029299c0-9.6924-6.335499-17.58132-14.1259-17.58132-7.790499,0-14.125999,7.889019-14.125999,17.58132v16.029299h-4.301999l-.0007-19.808199h.002199Zm28.656102,19.808199h-20.459202v-16.029299c0-7.5464,4.59-13.6834,10.229599-13.6834,5.640102,0,10.2281,6.137,10.2281,13.6834l.001503,16.029299Z" style="fill:#fff;"/><path d="m31.500401,82.442596c2.0158,0,3.652298-1.415398,3.652298-3.165894v-10.301605c2.8969-1.372795,4.918701-4.303497,4.918701-7.724499,0-4.7341-3.836899-8.573799-8.570299-8.573799-4.7341,0-8.570301,3.839699-8.570301,8.573799,0,3.4202,2.0194,6.350903,4.918701,7.724499v10.301605c-.001501,1.751999,1.635099,3.165894,3.6509,3.165894Z" style="fill:#fff;"/></svg>