<?xml version="1.0" encoding="UTF-8"?><svg id="a" xmlns="http://www.w3.org/2000/svg" viewBox="0 0 85.047998 97.0196"><path d="m70.417289,45.952487l-.104514-.158086-.160189.094343c-.9229.536765-1.856763,1.059944-2.810795,1.567513l-.191402.102494.119418.179829c2.841218,4.311847,4.503248,9.27111,4.814068,14.353119h-11.065967c-.164223-3.613575-.797348-7.19795-1.883862-10.649322l-.06383-.198854-.192713.069265c-.999533.376579-2.013447.724049-3.030603,1.040304l-.187281.059709.057692.187281c.962969,3.084261,1.528933,6.275054,1.689035,9.488901h-12.982971v-7.662735l-.552375.023058c-.957537.040681-1.907003.015606-2.84753-.027179l-.204904-.011489v7.678344h-12.979027c.162204-3.156158.729485-6.319856,1.689035-9.423757l.057692-.189298-.191402-.055675c-1.034866-.308716-2.055443-.637245-3.051556-.999533l-.194822-.071281-.061726.198854c-1.065379,3.433749-1.691141,6.980162-1.860797,10.54148h-11.064044c.306787-5.04194,1.931992-9.957806,4.709468-14.233791l.118102-.179826-.187279-.102497c-.96911-.523176-1.907005-1.057927-2.812283-1.602234l-.164221-.098377-.104512.16624c-3.447338,5.366529-5.252285,11.600725-5.219142,18.028948.093026,18.168005,14.951701,32.951365,33.122075,32.951365h.171675c18.263485-.09557,33.042022-15.032718,32.949963-33.298748-.033233-6.300303-1.875005-12.444363-5.327688-17.768365h-.000789Zm1.669308,19.748847c-.331777,5.48577-2.169429,10.73621-5.327688,15.19676-2.4009-1.598114-4.985656-2.966857-7.680451-4.071078,1.15017-3.599989,1.803021-7.344467,1.951544-11.125682h11.056595Zm-7.599698,18.020265c-.285654.320292-.580868.633125-.886256.93781-3.781216,3.819445-8.479722,6.518181-13.625738,7.835109,3.335282-3.61322,5.97782-7.740067,7.860274-12.278561,2.320762.956132,4.557519,2.133387,6.65172,3.505642Zm-20.06151-10.079411v-7.941027h12.996563c-.144496,3.362377-.729485,6.694418-1.735155,9.900111-3.652155-1.142798-7.437405-1.803108-11.261409-1.959083Zm10.014271,5.352238c-2.260434,5.364419-5.627019,10.031542-10.014271,13.884127v-15.626737c3.403235.152035,6.771225.73895,10.014271,1.74261Zm-26.616077-13.293265h12.997965v7.941027c-3.8219.156062-7.611183.816372-11.266844,1.966535-1.006985-3.202362-1.589959-6.537734-1.731121-9.907562Zm-.424801,14.520757c1.648352,3.949472,3.891076,7.616883,6.669428,10.905697.388152.457684.787879.909227,1.196985,1.352876-5.588267-1.439677-10.581462-4.461072-14.494371-8.768624,2.103666-1.370764,4.332801-2.544158,6.627869-3.490036l.000089.000087Zm13.423555-2.970275v15.627787c-1.421004-1.248536-2.763886-2.617199-3.997696-4.075292-2.501287-2.964663-4.528236-6.263478-6.024729-9.805677,3.248484-1.007781,6.61919-1.594782,10.022248-1.746817h.000177Zm-14.666746-.420772c-2.663493,1.088527-5.236853,2.453157-7.653356,4.057318-3.165714-4.476157-5.008713-9.718883-5.341277-15.1851h11.054486c.143267,3.782447.796032,7.525694,1.940147,11.127783Z" style="fill:#fff;"/><path d="m85.025555,24.810343c0-.007454-.004034-.017625-.004034-.02718l-.055675-.440409c-.183247-1.1428-.717999-2.229222-1.520785-3.071373-2.333732-2.745034-5.175037-5.426063-8.944594-8.423522-7.90043-6.292755-15.85295-10.320873-23.645447-11.977319-5.082099-1.081025-10.338593-1.156334-15.57948-.219863-4.319911.77428-8.703828,2.316077-13.403739,4.717622-6.119072,3.129092-12.02149,7.495254-17.539071,12.974976-.934432.924304-1.924496,1.929888-2.825768,3.005613-2.009283,2.381957-2.009283,5.460782,0,7.840636,2.304608,2.735477,5.16756,5.43562,9.00646,8.49682,7.89298,6.292764,15.849439,10.322899,23.647201,11.982826,2.727235.578854,5.51637.872663,8.299896.872663,2.403,0,4.854749-.219808,7.282824-.652062,4.320001-.775691,8.705146-2.322163,13.397689-4.721832,6.126527-3.130993,12.027544-7.493167,17.544266-12.969468.901246-.895721,1.860797-1.868162,2.761869-2.930123.787876-.829965,1.320607-1.8921,1.513326-3.019204l.079349-.19675.004121-.571401c.004034-.071281.004034-.142476.004034-.21446l-.022443-.45619Zm-38.354545,1.951544c0,2.293051-1.86071,4.151657-4.148326,4.151657-2.291034,0-4.15043-1.858606-4.15043-4.151657,0-.51704.105915-1.005672.279604-1.458967h7.744191c.169046.453296.274961.941227.274961,1.458967Zm32.658168-1.405309l-.156069.171675c-.783755.922901-1.659836,1.812574-2.491908,2.640433-5.101736,5.063075-10.52377,9.079795-16.124924,11.942757-4.192429,2.142331-8.059218,3.513181-11.815272,4.184974-2.100245.376579-4.217413.565262-6.283205.565262-2.385902,0-4.779434-.251111-7.118605-.749211-6.927905-1.474572-14.090524-5.130848-21.289794-10.867203-3.538172-2.820264-6.144017-5.273416-8.203677-7.717099-.111974-.133007-.141154-.202976-.150649-.229367l23.42825-.000701c-.057692.509586-.09434,1.026713-.09434,1.554011,0,7.456518,6.04577,13.498081,13.496239,13.498081,7.454412,0,13.492647-6.039633,13.492647-13.498081,0-.525281-.038668-1.044425-.094256-1.554011h23.433442l-.009472.057692-.018409.000789Z" style="fill:#fff;"/></svg>