<?xml version="1.0" encoding="UTF-8"?><svg id="a" xmlns="http://www.w3.org/2000/svg" viewBox="0 0 96.706417 96.706419"><path d="m95.983336,77.785143l-25.69942-25.704033c-.897504-.897686-2.354045-.897686-3.250574,0l-5.865736,5.866796-1.408272-1.408543,6.241289-6.242355c.897504-.897683.897504-2.35458,0-3.251288l-6.540901-6.542143,4.090501-4.110202c3.174011,2.441438,6.994006,3.685493,10.813906,3.685493,4.552831,0,9.097323-1.727321,12.559859-5.200856l1.215311-1.215483c.897152-.897683.897152-2.35458,0-3.251288l-9.299788-9.30156,3.337703-3.358108c.916402.434204,1.910437.684841,2.951848.684841,1.84239,0,3.57867-.714208,4.88155-2.026221,1.302427-1.312013,2.025509-3.039243,2.025509-4.882077,0-1.842923-.714208-3.579424-2.025509-4.882166-2.604955-2.605031-7.157962-2.605031-9.762558,0-1.302257,1.302565-2.02578,3.039243-2.02578,4.882166,0,1.042389.250639,2.045119.694159,2.961789l-3.337703,3.347818-9.318687-9.320476c-.897504-.897667-2.354045-.897667-3.250574,0l-1.215399,1.215591c-6.376322,6.377566-6.868016,16.421726-1.504716,23.379531l-4.090413,4.110287-6.559892-6.56113c-.897507-.897683-2.354045-.897683-3.250577,0l-6.241201,6.242443-1.408276-1.40854,5.865733-5.866887c.897504-.897683.897504-2.354492,0-3.2512L18.905483.673252c-.897417-.89767-2.353959-.89767-3.250577,0L.673123,15.657922c-.897497.897685-.897497,2.354492,0,3.2512l25.699161,25.704121c.453101.453189,1.042211.675436,1.630523.675436.588225,0,1.176535-.222247,1.630435-.675436l5.865733-5.866796,1.408276,1.408452-20.162046,20.165862c-.434114.434205-.675258,1.013198-.675258,1.630793,0,.617765.241234,1.196669.675258,1.630787l.897507.897686-4.630463,3.174721c-.559832.385936-.925897,1.003613-.993947,1.688458-.067162.684926.183476,1.350872.665767,1.842742l12.839685,12.84217c.434114.434205,1.022338.675436,1.630435.675436.067251,0,.144704,0,.211955-.00949.684753-.067249,1.302256-.424709,1.688104-.994218l3.174099-4.631344.897507.89768c.434114.434205,1.012934.675436,1.630526.675436.617589,0,1.196321-.24123,1.630435-.675436l20.162044-20.165862,1.408188,1.408543-5.865641,5.866799c-.897507.897686-.897507,2.354492,0,3.251284l25.69915,25.704301c.453016.452481,1.042216.675172,1.630435.675172.588313,0,1.176626-.22269,1.630529-.675172l14.981505-14.984882c.897862-.89768.897862-2.354492,0-3.251284l-.049684-.009937Zm-12.454013-67.860492c.434117-.434203,1.012934-.675437,1.630435-.675437.617596,0,1.196412.241234,1.630529.675437.434111.434114.675253,1.013111.675253,1.630789,0,.61759-.241142,1.196587-.675253,1.63079-.858738.858823-2.354052.868317-3.231682.009405,0,0-.009409-.018898-.018899-.029278,0,0-.018987,0-.018987-.018898-.424621-.434203-.656273-.994213-.656273-1.601512,0-.608274.241142-1.196675.67526-1.630789l-.010384.009493Zm-18.859523,3.512306l9.299788,9.301562s0,.009492.00949.018897c0,0,.009497,0,.018899.009493l9.270506,9.272281c-5.151521,4.718477-13.168039,4.59249-18.165364-.376534-.009497-.009402-.009497-.029276-.018987-.038769,0,0-.018987-.009405-.029282-.018899-4.96805-4.998391-5.093945-13.016329-.376358-18.158538l-.008691-.009493Zm20.007672,59.550571l-4.235119,4.235918-3.164609-3.165225,4.235119-4.235918,3.164609,3.165225Zm-6.424679-6.425918l-4.235119,4.235918-3.164609-3.165231,4.235119-4.235918,3.164609,3.165231Zm-9.589105-9.590885l3.164602,3.165231-4.235119,4.235918-3.164609-3.165231,4.235126-4.235918ZM33.308886,21.609094l-4.235122,4.235919-3.164605-3.16514,4.235119-4.236007,3.164609,3.165228Zm-6.424679-6.42592l-4.23512,4.235918-3.164607-3.165138,4.23512-4.236007,3.164607,3.165228Zm-9.589019-9.590882l3.164607,3.16521-4.235119,4.235936-3.164608-3.165228,4.23512-4.235918Zm-11.730355,11.732618l4.235164-4.236007,3.164518,3.165228-4.235085,4.235919-3.164598-3.16514Zm6.424633,6.42592l4.235209-4.236007,3.164517,3.165228-4.23512,4.235919-3.164606-3.16514Zm6.424766,6.42583l4.23512-4.235918,3.164607,3.165228-4.23521,4.235918-3.164517-3.165228Zm9.589019,9.590973l-3.164607-3.165228,4.235119-4.235921,3.164609,3.16514-4.23512,4.236009Zm7.495191-7.496702l-3.164609-3.165137,4.235122-4.236009,3.164605,3.165228-4.235119,4.235918Zm-8.682108,46.545246l-8.913936-8.915537,3.057697-2.093469,7.958674,7.960268-2.093029,3.058228-.009405-.00949Zm7.919813-3.733759l-13.110198-13.112676,20.094795-20.098613s.057671-.029279.077453-.048266c.018987-.018899.029279-.057668.048266-.077541l6.183445-6.184599,13.110195,13.112682-26.403956,26.409012Zm22.20654-6.377567l4.235126-4.235918,3.164602,3.165143-4.235119,4.236006-3.164609-3.165231Zm6.424679,6.425925l4.235119-4.236012,3.164609,3.165231-4.235119,4.235918-3.164609-3.165137Zm6.424679,6.425918l4.235119-4.236006,3.164609,3.165225-4.235119,4.235918-3.164609-3.165137Zm9.589017,9.590438l-3.164609-3.164785,4.235126-4.235918,3.164602,3.165225-4.235119,4.235478Zm7.495189-7.496259l-3.164602-3.165137,4.235119-4.236006,3.164873,3.165225-4.23539,4.235918Z" style="fill:#fff;"/></svg>