<?xml version="1.0" encoding="utf-8"?>
<!-- Generator: Adobe Illustrator 27.8.0, SVG Export Plug-In . SVG Version: 6.00 Build 0)  -->
<svg version="1.1" id="Layer_1" xmlns="http://www.w3.org/2000/svg" xmlns:xlink="http://www.w3.org/1999/xlink" x="0px" y="0px"
	 viewBox="0 0 32 32" style="enable-background:new 0 0 32 32;" xml:space="preserve">
<style type="text/css">
	.st0{fill:#06D6A0;}
</style>
<path class="st0" d="M22.220676,27.71019c-2.902931,0.06703-4.746702-0.805429-7.660479-0.822412
	c-3.306068-0.01927-7.675434,0.946676-7.675434,0.946676c-0.069252,0-0.118134-0.067219-0.096745-0.133413l0.918613-2.935095
	l-7.482348-5.661413c-0.062122-0.04685-0.049902-0.144615,0.022402-0.175165l2.639756-1.125362l-1.815849-3.618453
	c-0.037681-0.075362,0.02648-0.160913,0.109991-0.145634l3.859818,0.711876l0.855477-2.800662
	c0.021383-0.07333,0.112024-0.096751,0.167017-0.04481l4.302836,4.077762L8.761716,8.335732
	c-0.016292-0.075362,0.05398-0.140543,0.128323-0.118134l2.859735,0.844271l2.909634-4.846677
	c0.039721-0.066194,0.135452-0.066194,0.174152,0l2.076559,3.459585c0.164984-0.106933,0.335066-0.208776,0.508192-0.304507
	c1.504213-0.835108,3.19072-1.252665,5.05851-1.252665c1.272009,0,2.449306,0.176191,3.52985,0.528562
	c1.081566,0.352376,2.031755,0.865659,2.852604,1.539855c0.821867,0.673182,1.488934,1.500141,2.001204,2.477824
	c0.513283,0.978703,0.832048,2.096935,0.95528,3.355704h-5.131834c-0.068232-0.526523-0.208775-1.002131-0.420609-1.426811
	c-0.211834-0.423661-0.491899-0.78622-0.841219-1.087675c-0.348297-0.300436-0.760757-0.531613-1.236366-0.692526
	c-0.475601-0.160913-1.001104-0.241365-1.575497-0.241365c-1.019442,0-1.896303,0.250527-2.631607,0.749557
	c-0.736317,0.499029-1.300522,1.221087-1.693638,2.165168c-0.393108,0.944079-0.589664,2.086746-0.589664,3.426988
	c0,1.396259,0.199614,2.564394,0.599854,3.505415c0.40024,0.940002,0.964443,1.647808,1.693638,2.123409
	c0.728168,0.475601,1.591795,0.713915,2.590866,0.713915c0.561146,0,1.072397-0.072309,1.533745-0.215904
	c0.462362-0.1436,0.868711-0.354408,1.221088-0.631424c0.352369-0.277008,0.643644-0.615124,0.872789-1.015364
	c0.229145-0.400246,0.388018-0.853439,0.47662-1.359598l5.131834,0.030552c-0.089622,0.93084-0.358486,1.84742-0.805576,2.749741
	c-0.449121,0.903341-1.062214,1.726229-1.842323,2.468662c-0.780115,0.742428-1.729286,1.332092-2.847511,1.770012
	c-1.119246,0.437927-2.400423,0.656885-3.843527,0.656885L22.220676,27.71019z"/>
</svg>
