<?xml version="1.0" encoding="utf-8"?>
<!-- Generator: Adobe Illustrator 27.8.0, SVG Export Plug-In . SVG Version: 6.00 Build 0)  -->
<svg version="1.1" id="Layer_1" xmlns="http://www.w3.org/2000/svg" xmlns:xlink="http://www.w3.org/1999/xlink" x="0px" y="0px"
	 viewBox="0 0 600 600" style="enable-background:new 0 0 600 600;" xml:space="preserve">
<style type="text/css">
	.st0{opacity:0.54;}
	.st1{fill:#06D6A0;}
</style>
<g class="st0">
	<path class="st1" d="M421.6,491.8l-269.5,94.3c-7,2.5-13.5-4.6-10.5-11.4l116-261.1c1.8-4,5.1-7.1,9.4-8.6l269.5-94.3
		c7-2.5,13.5,4.6,10.5,11.4L431,482.9C429.1,487.1,425.7,490.3,421.6,491.8z"/>
</g>
<g>
	<path class="st1" d="M102.5,561.9L62.9,293.5c-0.5-3.1,0-6.3,1.3-9.1L180.9,21.7c3.6-8,15.4-6.4,16.7,2.3l39.6,268.4
		c0.5,3.1,0,6.3-1.3,9.1L119.1,564.2C115.6,572.2,103.7,570.5,102.5,561.9z"/>
</g>
</svg>
