<?xml version="1.0" encoding="utf-8"?>
<!-- Generator: Adobe Illustrator 27.8.0, SVG Export Plug-In . SVG Version: 6.00 Build 0)  -->
<svg version="1.1" id="Layer_1" xmlns="http://www.w3.org/2000/svg" xmlns:xlink="http://www.w3.org/1999/xlink" x="0px" y="0px"
	 viewBox="0 0 3860.03 600" style="enable-background:new 0 0 3860.03 600;" xml:space="preserve">
<style type="text/css">
	.st0{display:none;fill:#00163D;}
	.st1{display:none;}
	.st2{display:inline;}
	.st3{fill:#00163D;}
	.st4{fill:#EFF2FB;}
	.st5{fill:none;}
	.st6{fill:#FFFFFF;}
	.st7{font-family:'DMSans-Medium';}
	.st8{font-size:160px;}
	.st9{opacity:0.54;}
	.st10{fill:#06D6A0;}
	.st11{fill:none;stroke:#06D6A0;stroke-width:8;stroke-miterlimit:10;}
	.st12{opacity:0.54;fill:none;stroke:#06D6A0;stroke-width:8;stroke-miterlimit:10;enable-background:new    ;}
</style>
<rect class="st0" width="3860.03" height="600"/>
<g id="Layer_1_00000118357643021434817180000016211112461911496861_" class="st1">
	<g id="Layer_2_00000142899051235287513520000000227369354418290076_" class="st2">
		<g>
			<g>
				<path class="st3" d="M1132.22,334.71c-2.8,28.86-11.44,54.13-25.94,75.84s-33.51,38.55-57.03,50.49
					c-23.51,11.94-50.53,17.92-81.05,17.92c-33.31,0-62.42-7.14-87.34-21.42c-24.92-14.28-44.31-34.24-58.17-59.9
					c-13.87-25.64-20.78-55.52-20.78-89.62s6.92-63.98,20.78-89.62c13.87-25.64,33.25-45.61,58.17-59.9
					c24.92-14.26,54.03-21.41,87.34-21.41c30.52,0,57.53,5.98,81.05,17.92c23.51,11.95,42.53,28.78,57.03,50.49
					c14.49,21.71,23.13,47,25.94,75.84h-79.33c-2.54-13.98-7.51-25.86-14.86-35.63c-7.38-9.77-16.98-17.27-28.81-22.52
					c-11.82-5.25-25.49-7.86-41-7.86c-17.79,0-33.18,3.72-46.14,11.15c-12.98,7.43-22.89,18.07-29.76,31.91
					c-6.86,13.85-10.29,30.38-10.29,49.62s3.42,35.78,10.29,49.62c6.86,13.85,16.79,24.48,29.76,31.91
					c12.96,7.42,28.35,11.15,46.14,11.15c15.52,0,29.19-2.47,41-7.42c11.83-4.95,21.42-12.38,28.81-22.3
					c7.37-9.9,12.32-22,14.86-36.28L1132.22,334.71L1132.22,334.71z"/>
				<path class="st3" d="M1170.73,144.11h78.96v327.87h-78.96V144.11z"/>
				<path class="st3" d="M1463.65,144.11c23.9,0,44.56,4.66,61.99,13.98c17.41,9.34,30.7,22.51,39.85,39.56s13.73,36.94,13.73,59.68
					c0,22.45-4.58,42.19-13.73,59.24c-9.16,17.05-22.45,30.24-39.85,39.56c-17.42,9.34-38.09,13.98-61.99,13.98h-11.91l-69.71-72.57
					h76.66c12.71,0,22.63-3.56,29.76-10.71c7.11-7.14,10.67-16.98,10.67-29.52c0-12.82-3.56-22.8-10.67-29.95
					c-7.12-7.14-17.04-10.72-29.76-10.72h-112.13l35.47-41.97v297.27h-78.96V144.11H1463.65z"/>
				<path class="st3" d="M1924,144.11h78.96v327.87H1924V144.11L1924,144.11z"/>
				<path class="st3" d="M2374.06,334.71c-2.8,28.86-11.44,54.13-25.94,75.84c-14.49,21.71-33.51,38.55-57.03,50.49
					c-23.51,11.94-50.53,17.92-81.05,17.92c-33.31,0-62.42-7.14-87.34-21.42c-24.92-14.28-44.31-34.24-58.17-59.9
					c-13.86-25.64-20.78-55.52-20.78-89.62s6.92-63.98,20.78-89.62s33.25-45.61,58.17-59.9c24.91-14.27,54.03-21.42,87.34-21.42
					c30.52,0,57.53,5.98,81.05,17.92c23.51,11.95,42.53,28.78,57.03,50.49c14.49,21.71,23.13,47,25.94,75.84h-79.33
					c-2.54-13.98-7.51-25.86-14.86-35.63c-7.38-9.77-16.98-17.27-28.81-22.52c-11.82-5.25-25.49-7.86-41-7.86
					c-17.79,0-33.18,3.72-46.14,11.15c-12.98,7.43-22.89,18.07-29.76,31.91c-6.86,13.85-10.29,30.38-10.29,49.62
					s3.42,35.78,10.29,49.62c6.86,13.85,16.79,24.48,29.76,31.91c12.96,7.42,28.35,11.15,46.14,11.15c15.52,0,29.19-2.47,41-7.42
					c11.82-4.95,21.42-12.38,28.81-22.3c7.37-9.9,12.32-22,14.86-36.28L2374.06,334.71L2374.06,334.71z"/>
			</g>
			<path class="st3" d="M1772.39,144.11c23.9,0,44.56,4.66,61.99,13.98c17.41,9.34,30.7,22.51,39.85,39.56s13.73,36.94,13.73,59.68
				c0,22.45-4.58,42.19-13.73,59.24c-9.16,17.05-22.45,30.24-39.85,39.56c-17.42,9.34-38.09,13.98-61.99,13.98h-11.91l-69.71-72.57
				h76.66c12.71,0,22.63-3.56,29.76-10.71c7.11-7.14,10.67-16.98,10.67-29.52c0-12.82-3.56-22.8-10.67-29.95
				c-7.12-7.14-17.04-10.72-29.76-10.72H1655.3l35.47-41.97v297.27h-78.96V144.11H1772.39z"/>
		</g>
	</g>
</g>
<g id="Layer_1_00000105416959970204032590000002210564579205975225_" class="st1">
	<g id="Layer_2_00000100347004271792579650000002822506165729967775_" class="st2">
		<g>
			<g>
				<path class="st4" d="M1132.22,334.71c-2.8,28.86-11.44,54.13-25.94,75.84s-33.51,38.55-57.03,50.49
					c-23.51,11.94-50.53,17.92-81.05,17.92c-33.31,0-62.42-7.14-87.34-21.42c-24.92-14.28-44.31-34.24-58.17-59.9
					c-13.87-25.64-20.78-55.52-20.78-89.62s6.92-63.98,20.78-89.62c13.87-25.64,33.25-45.61,58.17-59.9
					c24.92-14.26,54.03-21.41,87.34-21.41c30.52,0,57.53,5.98,81.05,17.92c23.51,11.95,42.53,28.78,57.03,50.49
					c14.49,21.71,23.13,47,25.94,75.84h-79.33c-2.54-13.98-7.51-25.86-14.86-35.63c-7.38-9.77-16.98-17.27-28.81-22.52
					c-11.82-5.25-25.49-7.86-41-7.86c-17.79,0-33.18,3.72-46.14,11.15c-12.98,7.43-22.89,18.07-29.76,31.91
					c-6.86,13.85-10.29,30.38-10.29,49.62s3.42,35.78,10.29,49.62c6.86,13.85,16.79,24.48,29.76,31.91
					c12.96,7.42,28.35,11.15,46.14,11.15c15.52,0,29.19-2.47,41-7.42c11.83-4.95,21.42-12.38,28.81-22.3
					c7.37-9.9,12.32-22,14.86-36.28L1132.22,334.71L1132.22,334.71z"/>
				<path class="st4" d="M1170.73,144.11h78.96v327.87h-78.96V144.11z"/>
				<path class="st4" d="M1463.65,144.11c23.9,0,44.56,4.66,61.99,13.98c17.41,9.34,30.7,22.51,39.85,39.56s13.73,36.94,13.73,59.68
					c0,22.45-4.58,42.19-13.73,59.24c-9.16,17.05-22.45,30.24-39.85,39.56c-17.42,9.34-38.09,13.98-61.99,13.98h-11.91l-69.71-72.57
					h76.66c12.71,0,22.63-3.56,29.76-10.71c7.11-7.14,10.67-16.98,10.67-29.52c0-12.82-3.56-22.8-10.67-29.95
					c-7.12-7.14-17.04-10.72-29.76-10.72h-112.13l35.47-41.97v297.27h-78.96V144.11H1463.65z"/>
				<path class="st4" d="M1924,144.11h78.96v327.87H1924V144.11L1924,144.11z"/>
				<path class="st4" d="M2374.06,334.71c-2.8,28.86-11.44,54.13-25.94,75.84c-14.49,21.71-33.51,38.55-57.03,50.49
					c-23.51,11.94-50.53,17.92-81.05,17.92c-33.31,0-62.42-7.14-87.34-21.42c-24.92-14.28-44.31-34.24-58.17-59.9
					c-13.86-25.64-20.78-55.52-20.78-89.62s6.92-63.98,20.78-89.62s33.25-45.61,58.17-59.9c24.91-14.27,54.03-21.42,87.34-21.42
					c30.52,0,57.53,5.98,81.05,17.92c23.51,11.95,42.53,28.78,57.03,50.49c14.49,21.71,23.13,47,25.94,75.84h-79.33
					c-2.54-13.98-7.51-25.86-14.86-35.63c-7.38-9.77-16.98-17.27-28.81-22.52c-11.82-5.25-25.49-7.86-41-7.86
					c-17.79,0-33.18,3.72-46.14,11.15c-12.98,7.43-22.89,18.07-29.76,31.91c-6.86,13.85-10.29,30.38-10.29,49.62
					s3.42,35.78,10.29,49.62c6.86,13.85,16.79,24.48,29.76,31.91c12.96,7.42,28.35,11.15,46.14,11.15c15.52,0,29.19-2.47,41-7.42
					c11.82-4.95,21.42-12.38,28.81-22.3c7.37-9.9,12.32-22,14.86-36.28L2374.06,334.71L2374.06,334.71z"/>
			</g>
			<path class="st4" d="M1772.39,144.11c23.9,0,44.56,4.66,61.99,13.98c17.41,9.34,30.7,22.51,39.85,39.56s13.73,36.94,13.73,59.68
				c0,22.45-4.58,42.19-13.73,59.24c-9.16,17.05-22.45,30.24-39.85,39.56c-17.42,9.34-38.09,13.98-61.99,13.98h-11.91l-69.71-72.57
				h76.66c12.71,0,22.63-3.56,29.76-10.71c7.11-7.14,10.67-16.98,10.67-29.52c0-12.82-3.56-22.8-10.67-29.95
				c-7.12-7.14-17.04-10.72-29.76-10.72H1655.3l35.47-41.97v297.27h-78.96V144.11H1772.39z"/>
		</g>
	</g>
</g>
<rect x="798.22" y="160.13" class="st5" width="2970.58" height="314.83"/>
<text transform="matrix(1 0 0 1 798.2192 275.3238)" class="st6 st7 st8">Samuelson-Glushko Canadian Internet </text>
<text transform="matrix(1 0 0 1 798.2192 467.3238)" class="st6 st7 st8">Policy and Public Interest Clinic</text>
<g class="st9">
	<path class="st10" d="M397.62,452.69l-175.25-75.75c-4.57-1.97-4.57-8.44,0-10.41l175.25-75.75c2.72-1.17,5.81-1.17,8.53,0
		l175.25,75.75c4.57,1.97,4.57,8.44,0,10.41l-175.25,75.75C403.43,453.86,400.34,453.86,397.62,452.69z"/>
</g>
<g>
	<path class="st10" d="M218.98,344.56l98.91-145.12c1.15-1.68,2.74-3,4.62-3.81l170.74-73.8c5.22-2.25,10.14,3.71,6.94,8.4
		l-98.91,145.12c-1.15,1.68-2.74,3-4.62,3.81l-170.74,73.8C220.7,355.23,215.78,349.26,218.98,344.56z"/>
</g>
<circle class="st11" cx="342.52" cy="323.91" r="202.57"/>
<g>
	<circle class="st10" cx="526.44" cy="238.95" r="11.69"/>
</g>
<g>
	<circle class="st10" cx="336.34" cy="526.68" r="11.69"/>
</g>
<g>
	<circle class="st10" cx="177.31" cy="205.18" r="11.69"/>
</g>
<circle class="st12" cx="401.39" cy="305.8" r="264.25"/>
<g>
	<circle class="st10" cx="588.56" cy="492.39" r="11.69"/>
</g>
<g>
	<circle class="st10" cx="150.51" cy="389.98" r="11.69"/>
</g>
<g>
	<ellipse class="st10" cx="413.22" cy="41.67" rx="11.69" ry="11.69"/>
</g>
</svg>
