<?xml version="1.0" encoding="utf-8"?>
<!-- Generator: Adobe Illustrator 27.8.0, SVG Export Plug-In . SVG Version: 6.00 Build 0)  -->
<svg version="1.1" id="Layer_1" xmlns="http://www.w3.org/2000/svg" xmlns:xlink="http://www.w3.org/1999/xlink" x="0px" y="0px"
	 viewBox="0 0 2553.3 600" style="enable-background:new 0 0 2553.3 600;" xml:space="preserve">
<style type="text/css">
	.st0{fill:#00163D;}
	.st1{opacity:0.54;}
	.st2{fill:#06D6A0;}
	.st3{fill:none;stroke:#06D6A0;stroke-width:8;stroke-miterlimit:10;}
	.st4{opacity:0.54;fill:none;stroke:#06D6A0;stroke-width:8;stroke-miterlimit:10;}
</style>
<g id="Layer_1_00000118357643021434817180000016211112461911496861_">
	<g id="Layer_2_00000142899051235287513520000000227369354418290076_">
		<g>
			<g>
				<path class="st0" d="M1132.22,334.71c-2.8,28.86-11.44,54.13-25.94,75.84s-33.51,38.55-57.03,50.49
					c-23.51,11.94-50.53,17.92-81.05,17.92c-33.31,0-62.42-7.14-87.34-21.42c-24.92-14.28-44.31-34.24-58.17-59.9
					c-13.87-25.64-20.78-55.52-20.78-89.62s6.92-63.98,20.78-89.62c13.87-25.64,33.25-45.61,58.17-59.9
					c24.92-14.26,54.03-21.41,87.34-21.41c30.52,0,57.53,5.98,81.05,17.92c23.51,11.95,42.53,28.78,57.03,50.49
					c14.49,21.71,23.13,47,25.94,75.84h-79.33c-2.54-13.98-7.51-25.86-14.86-35.63c-7.38-9.77-16.98-17.27-28.81-22.52
					c-11.82-5.25-25.49-7.86-41-7.86c-17.79,0-33.18,3.72-46.14,11.15c-12.98,7.43-22.89,18.07-29.76,31.91
					c-6.86,13.85-10.29,30.38-10.29,49.62c0,19.24,3.42,35.78,10.29,49.62c6.86,13.85,16.79,24.48,29.76,31.91
					c12.96,7.42,28.35,11.15,46.14,11.15c15.52,0,29.19-2.47,41-7.42c11.83-4.95,21.42-12.38,28.81-22.3
					c7.37-9.9,12.32-22,14.86-36.28L1132.22,334.71L1132.22,334.71z"/>
				<path class="st0" d="M1170.73,144.11h78.96v327.87h-78.96V144.11z"/>
				<path class="st0" d="M1463.65,144.11c23.9,0,44.56,4.66,61.99,13.98c17.41,9.34,30.7,22.51,39.85,39.56
					c9.15,17.05,13.73,36.94,13.73,59.68c0,22.45-4.58,42.19-13.73,59.24c-9.16,17.05-22.45,30.24-39.85,39.56
					c-17.42,9.34-38.09,13.98-61.99,13.98h-11.91l-69.71-72.57h76.66c12.71,0,22.63-3.56,29.76-10.71
					c7.11-7.14,10.67-16.98,10.67-29.52c0-12.82-3.56-22.8-10.67-29.95c-7.12-7.14-17.04-10.72-29.76-10.72h-112.13l35.47-41.97
					v297.27h-78.96V144.11H1463.65z"/>
				<path class="st0" d="M1924,144.11h78.96v327.87H1924L1924,144.11L1924,144.11z"/>
				<path class="st0" d="M2374.06,334.71c-2.8,28.86-11.44,54.13-25.94,75.84c-14.49,21.71-33.51,38.55-57.03,50.49
					c-23.51,11.94-50.53,17.92-81.05,17.92c-33.31,0-62.42-7.14-87.34-21.42c-24.92-14.28-44.31-34.24-58.17-59.9
					c-13.86-25.64-20.78-55.52-20.78-89.62s6.92-63.98,20.78-89.62c13.86-25.64,33.25-45.61,58.17-59.9
					c24.91-14.27,54.03-21.42,87.34-21.42c30.52,0,57.53,5.98,81.05,17.92c23.51,11.95,42.53,28.78,57.03,50.49
					c14.49,21.71,23.13,47,25.94,75.84h-79.33c-2.54-13.98-7.51-25.86-14.86-35.63c-7.38-9.77-16.98-17.27-28.81-22.52
					c-11.82-5.25-25.49-7.86-41-7.86c-17.79,0-33.18,3.72-46.14,11.15c-12.98,7.43-22.89,18.07-29.76,31.91
					c-6.86,13.85-10.29,30.38-10.29,49.62s3.42,35.78,10.29,49.62c6.86,13.85,16.79,24.48,29.76,31.91
					c12.96,7.42,28.35,11.15,46.14,11.15c15.52,0,29.19-2.47,41-7.42c11.82-4.95,21.42-12.38,28.81-22.3
					c7.37-9.9,12.32-22,14.86-36.28L2374.06,334.71L2374.06,334.71z"/>
			</g>
			<path class="st0" d="M1772.39,144.11c23.9,0,44.56,4.66,61.99,13.98c17.41,9.34,30.7,22.51,39.85,39.56
				c9.15,17.05,13.73,36.94,13.73,59.68c0,22.45-4.58,42.19-13.73,59.24c-9.16,17.05-22.45,30.24-39.85,39.56
				c-17.42,9.34-38.09,13.98-61.99,13.98h-11.91l-69.71-72.57h76.66c12.71,0,22.63-3.56,29.76-10.71
				c7.11-7.14,10.67-16.98,10.67-29.52c0-12.82-3.56-22.8-10.67-29.95c-7.12-7.14-17.04-10.72-29.76-10.72H1655.3l35.47-41.97
				v297.27h-78.96V144.11H1772.39z"/>
		</g>
	</g>
</g>
<g class="st1">
	<path class="st2" d="M400.72,490.27L190.03,399.2c-5.49-2.37-5.49-10.15,0-12.52l210.69-91.07c3.27-1.41,6.98-1.41,10.25,0
		l210.69,91.07c5.49,2.37,5.49,10.15,0,12.52l-210.69,91.07C407.7,491.68,403.99,491.68,400.72,490.27z"/>
</g>
<g>
	<path class="st2" d="M185.95,360.28l118.92-174.47c1.38-2.02,3.3-3.61,5.55-4.58L515.69,92.5c6.27-2.71,12.19,4.46,8.34,10.1
		L405.11,277.07c-1.38,2.02-3.3,3.61-5.55,4.58l-205.27,88.73C188.02,373.1,182.1,365.93,185.95,360.28z"/>
</g>
<circle class="st3" cx="342.52" cy="323.91" r="202.57"/>
<g>
	<circle class="st2" cx="526.44" cy="238.95" r="11.69"/>
</g>
<g>
	<circle class="st2" cx="336.34" cy="526.68" r="11.69"/>
</g>
<g>
	<circle class="st2" cx="177.31" cy="205.18" r="11.69"/>
</g>
<circle class="st4" cx="401.39" cy="305.8" r="264.25"/>
<g>
	<circle class="st2" cx="588.56" cy="492.39" r="11.69"/>
</g>
<g>
	<circle class="st2" cx="150.51" cy="389.98" r="11.69"/>
</g>
<g>
	
		<ellipse transform="matrix(0.7071 -0.7071 0.7071 0.7071 91.5643 304.3943)" class="st2" cx="413.22" cy="41.67" rx="11.69" ry="11.69"/>
</g>
</svg>
