<?xml version="1.0" encoding="utf-8"?>
<!-- Generator: Adobe Illustrator 27.8.0, SVG Export Plug-In . SVG Version: 6.00 Build 0)  -->
<svg version="1.1" id="Layer_1" xmlns="http://www.w3.org/2000/svg" xmlns:xlink="http://www.w3.org/1999/xlink" x="0px" y="0px"
	 viewBox="0 0 3860 600" style="enable-background:new 0 0 3860 600;" xml:space="preserve">
<style type="text/css">
	.st0{display:none;fill:#00163D;}
	.st1{display:none;}
	.st2{display:inline;}
	.st3{fill:#00163D;}
	.st4{fill:#EFF2FB;}
	.st5{display:none;fill:none;}
	.st6{display:none;fill:#EFF2FB;enable-background:new    ;}
	.st7{font-family:'DMSans-Medium';}
	.st8{font-size:160px;}
	.st9{opacity:0.54;}
	.st10{fill:#06D6A0;}
	.st11{fill:none;stroke:#06D6A0;stroke-width:8;stroke-miterlimit:10;}
	.st12{opacity:0.54;fill:none;stroke:#06D6A0;stroke-width:8;stroke-miterlimit:10;enable-background:new    ;}
</style>
<rect class="st0" width="2553.3" height="600"/>
<g id="Layer_1_00000118357643021434817180000016211112461911496861_" class="st1">
	<g id="Layer_2_00000142899051235287513520000000227369354418290076_" class="st2">
		<g>
			<g>
				<path class="st3" d="M1132.2,334.7c-2.8,28.9-11.4,54.1-25.9,75.8s-33.5,38.5-57,50.5c-23.5,11.9-50.5,17.9-81,17.9
					c-33.3,0-62.4-7.1-87.3-21.4c-24.9-14.3-44.3-34.2-58.2-59.9C808.9,372,802,342.1,802,308s6.9-64,20.8-89.6
					c13.9-25.6,33.2-45.6,58.2-59.9c24.9-14.3,54-21.4,87.3-21.4c30.5,0,57.5,6,81.1,17.9c23.5,11.9,42.5,28.8,57,50.5
					s23.1,47,25.9,75.8H1053c-2.5-14-7.5-25.9-14.9-35.6c-7.4-9.8-17-17.3-28.8-22.5s-25.5-7.9-41-7.9c-17.8,0-33.2,3.7-46.1,11.1
					c-13,7.4-22.9,18.1-29.8,31.9c-6.9,13.9-10.3,30.4-10.3,49.6s3.4,35.8,10.3,49.6c6.9,13.9,16.8,24.5,29.8,31.9
					s28.3,11.1,46.1,11.1c15.5,0,29.2-2.5,41-7.4c11.8-5,21.4-12.4,28.8-22.3s12.3-22,14.9-36.3L1132.2,334.7L1132.2,334.7z"/>
				<path class="st3" d="M1170.7,144.1h79V472h-79V144.1z"/>
				<path class="st3" d="M1463.7,144.1c23.9,0,44.6,4.7,62,14s30.7,22.5,39.8,39.6s13.7,36.9,13.7,59.7c0,22.5-4.6,42.2-13.7,59.2
					c-9.2,17-22.4,30.2-39.8,39.6c-17.4,9.3-38.1,14-62,14h-11.9l-69.7-72.6h76.7c12.7,0,22.6-3.6,29.8-10.7
					c7.1-7.1,10.7-17,10.7-29.5c0-12.8-3.6-22.8-10.7-29.9c-7.1-7.1-17-10.7-29.8-10.7h-112.1l35.5-42v297.3h-79v-328H1463.7z"/>
				<path class="st3" d="M1924,144.1h79V472h-79V144.1L1924,144.1z"/>
				<path class="st3" d="M2374.1,334.7c-2.8,28.9-11.4,54.1-25.9,75.8c-14.5,21.7-33.5,38.5-57,50.5c-23.5,11.9-50.5,17.9-81.1,17.9
					c-33.3,0-62.4-7.1-87.3-21.4c-24.9-14.3-44.3-34.2-58.2-59.9c-13.9-25.6-20.8-55.5-20.8-89.6s6.9-64,20.8-89.6
					s33.2-45.6,58.2-59.9c24.9-14.3,54-21.4,87.3-21.4c30.5,0,57.5,6,81.1,17.9c23.5,11.9,42.5,28.8,57,50.5s23.1,47,25.9,75.8
					h-79.3c-2.5-14-7.5-25.9-14.9-35.6c-7.4-9.8-17-17.3-28.8-22.5s-25.5-7.9-41-7.9c-17.8,0-33.2,3.7-46.1,11.1
					c-13,7.4-22.9,18.1-29.8,31.9c-6.9,13.9-10.3,30.4-10.3,49.6s3.4,35.8,10.3,49.6c6.9,13.9,16.8,24.5,29.8,31.9
					s28.4,11.1,46.1,11.1c15.5,0,29.2-2.5,41-7.4c11.8-5,21.4-12.4,28.8-22.3c7.4-9.9,12.3-22,14.9-36.3L2374.1,334.7L2374.1,334.7z
					"/>
			</g>
			<path class="st3" d="M1772.4,144.1c23.9,0,44.6,4.7,62,14s30.7,22.5,39.8,39.6s13.7,36.9,13.7,59.7c0,22.5-4.6,42.2-13.7,59.2
				c-9.2,17-22.4,30.2-39.8,39.6c-17.4,9.3-38.1,14-62,14h-11.9l-69.7-72.6h76.7c12.7,0,22.6-3.6,29.8-10.7
				c7.1-7.1,10.7-17,10.7-29.5c0-12.8-3.6-22.8-10.7-29.9c-7.1-7.1-17-10.7-29.8-10.7h-112.1l35.5-42v297.3h-79v-328H1772.4z"/>
		</g>
	</g>
</g>
<g id="Layer_1_00000105416959970204032590000002210564579205975225_">
	<g id="Layer_2_00000100347004271792579650000002822506165729967775_">
		<g>
			<g>
				<path class="st4" d="M1132.2,334.7c-2.8,28.9-11.4,54.1-25.9,75.8s-33.5,38.5-57,50.5c-23.5,11.9-50.5,17.9-81,17.9
					c-33.3,0-62.4-7.1-87.3-21.4c-24.9-14.3-44.3-34.2-58.2-59.9C808.9,372,802,342.1,802,308s6.9-64,20.8-89.6
					c13.9-25.6,33.2-45.6,58.2-59.9c24.9-14.3,54-21.4,87.3-21.4c30.5,0,57.5,6,81.1,17.9c23.5,11.9,42.5,28.8,57,50.5
					s23.1,47,25.9,75.8H1053c-2.5-14-7.5-25.9-14.9-35.6c-7.4-9.8-17-17.3-28.8-22.5s-25.5-7.9-41-7.9c-17.8,0-33.2,3.7-46.1,11.1
					c-13,7.4-22.9,18.1-29.8,31.9c-6.9,13.9-10.3,30.4-10.3,49.6s3.4,35.8,10.3,49.6c6.9,13.9,16.8,24.5,29.8,31.9
					s28.3,11.1,46.1,11.1c15.5,0,29.2-2.5,41-7.4c11.8-5,21.4-12.4,28.8-22.3s12.3-22,14.9-36.3L1132.2,334.7L1132.2,334.7z"/>
				<path class="st4" d="M1170.7,144.1h79V472h-79V144.1z"/>
				<path class="st4" d="M1463.7,144.1c23.9,0,44.6,4.7,62,14s30.7,22.5,39.8,39.6s13.7,36.9,13.7,59.7c0,22.5-4.6,42.2-13.7,59.2
					c-9.2,17-22.4,30.2-39.8,39.6c-17.4,9.3-38.1,14-62,14h-11.9l-69.7-72.6h76.7c12.7,0,22.6-3.6,29.8-10.7
					c7.1-7.1,10.7-17,10.7-29.5c0-12.8-3.6-22.8-10.7-29.9c-7.1-7.1-17-10.7-29.8-10.7h-112.1l35.5-42v297.3h-79v-328H1463.7z"/>
				<path class="st4" d="M1924,144.1h79V472h-79V144.1L1924,144.1z"/>
				<path class="st4" d="M2374.1,334.7c-2.8,28.9-11.4,54.1-25.9,75.8c-14.5,21.7-33.5,38.5-57,50.5c-23.5,11.9-50.5,17.9-81.1,17.9
					c-33.3,0-62.4-7.1-87.3-21.4c-24.9-14.3-44.3-34.2-58.2-59.9c-13.9-25.6-20.8-55.5-20.8-89.6s6.9-64,20.8-89.6
					s33.2-45.6,58.2-59.9c24.9-14.3,54-21.4,87.3-21.4c30.5,0,57.5,6,81.1,17.9c23.5,11.9,42.5,28.8,57,50.5s23.1,47,25.9,75.8
					h-79.3c-2.5-14-7.5-25.9-14.9-35.6c-7.4-9.8-17-17.3-28.8-22.5s-25.5-7.9-41-7.9c-17.8,0-33.2,3.7-46.1,11.1
					c-13,7.4-22.9,18.1-29.8,31.9c-6.9,13.9-10.3,30.4-10.3,49.6s3.4,35.8,10.3,49.6c6.9,13.9,16.8,24.5,29.8,31.9
					s28.4,11.1,46.1,11.1c15.5,0,29.2-2.5,41-7.4c11.8-5,21.4-12.4,28.8-22.3c7.4-9.9,12.3-22,14.9-36.3L2374.1,334.7L2374.1,334.7z
					"/>
			</g>
			<path class="st4" d="M1772.4,144.1c23.9,0,44.6,4.7,62,14s30.7,22.5,39.8,39.6s13.7,36.9,13.7,59.7c0,22.5-4.6,42.2-13.7,59.2
				c-9.2,17-22.4,30.2-39.8,39.6c-17.4,9.3-38.1,14-62,14h-11.9l-69.7-72.6h76.7c12.7,0,22.6-3.6,29.8-10.7
				c7.1-7.1,10.7-17,10.7-29.5c0-12.8-3.6-22.8-10.7-29.9c-7.1-7.1-17-10.7-29.8-10.7h-112.1l35.5-42v297.3h-79v-328H1772.4z"/>
		</g>
	</g>
</g>
<rect x="798.2" y="160.1" class="st5" width="2970.6" height="314.8"/>
<text transform="matrix(1 0 0 1 798.2192 275.3238)" class="st6 st7 st8">Samuelson-Glushko Canadian Internet </text>
<text transform="matrix(1 0 0 1 798.2192 467.3238)" class="st6 st7 st8">Policy and Public Interest Clinic</text>
<g class="st9">
	<path class="st10" d="M498.2,430.8L283,506.1c-5.6,2-10.8-3.7-8.4-9.1l92.6-208.3c1.4-3.2,4.1-5.7,7.5-6.9l215.2-75.3
		c5.6-2,10.8,3.7,8.4,9.1l-92.6,208.3C504.3,427.1,501.5,429.6,498.2,430.8z"/>
</g>
<g>
	<path class="st10" d="M243.4,486.8l-31.6-214.3c-0.4-2.5,0-5,1-7.3L306,55.5c2.9-6.4,12.3-5.1,13.3,1.8L351,271.6
		c0.4,2.5,0,5-1,7.3l-93.2,209.7C253.9,495,244.4,493.7,243.4,486.8z"/>
</g>
<circle class="st11" cx="345.4" cy="354.6" r="207.9"/>
<g>
	<circle class="st10" cx="425.1" cy="162.6" r="12"/>
</g>
<g>
	<circle class="st10" cx="481.7" cy="511.9" r="12"/>
</g>
<g>
	<circle class="st10" cx="138.2" cy="379.9" r="12"/>
</g>
<circle class="st12" cx="377.2" cy="300" r="271.1"/>
<g>
	<circle class="st10" cx="648.2" cy="310.7" r="12"/>
</g>
<g>
	<circle class="st10" cx="246.4" cy="537.9" r="12"/>
</g>
<g>
	<ellipse class="st10" cx="202.5" cy="92.4" rx="12" ry="12"/>
</g>
</svg>
