<?xml version="1.0" encoding="utf-8"?>
<!-- Generator: Adobe Illustrator 27.4.1, SVG Export Plug-In . SVG Version: 6.00 Build 0)  -->
<svg version="1.1" id="Layer_1" xmlns="http://www.w3.org/2000/svg" xmlns:xlink="http://www.w3.org/1999/xlink" x="0px" y="0px"
	 viewBox="0 0 495.02 111.34" style="enable-background:new 0 0 495.02 111.34;" xml:space="preserve">
<style type="text/css">
	.st0{fill:none;}
	.st1{display:none;}
	.st2{display:inline;}
	.st3{font-family:'DMSans-Regular';}
	.st4{font-size:30px;}
	.st5{fill:#346083;}
	.st6{fill:#6D9DC5;}
	.st7{fill:#234058;}
</style>
<g>
	<g>
		<path d="M202.94,61.77c-0.62,6.43-2.55,12.06-5.78,16.89c-3.23,4.84-7.46,8.59-12.7,11.25c-5.24,2.66-11.25,3.99-18.05,3.99
			c-7.42,0-13.9-1.59-19.45-4.77c-5.55-3.18-9.87-7.63-12.96-13.34c-3.09-5.71-4.63-12.37-4.63-19.96s1.54-14.25,4.63-19.96
			c3.09-5.71,7.4-10.16,12.96-13.34c5.55-3.18,12.03-4.77,19.45-4.77c6.8,0,12.81,1.33,18.05,3.99c5.24,2.66,9.47,6.41,12.7,11.25
			c3.23,4.84,5.15,10.47,5.78,16.89h-17.67c-0.57-3.12-1.67-5.76-3.31-7.93c-1.64-2.17-3.78-3.85-6.42-5.02
			c-2.63-1.17-5.68-1.75-9.13-1.75c-3.96,0-7.39,0.83-10.28,2.48c-2.89,1.66-5.1,4.03-6.63,7.11c-1.53,3.08-2.29,6.77-2.29,11.05
			s0.76,7.97,2.29,11.05c1.53,3.08,3.74,5.45,6.63,7.11c2.89,1.65,6.31,2.48,10.28,2.48c3.46,0,6.5-0.55,9.13-1.65
			c2.63-1.1,4.77-2.76,6.42-4.97c1.64-2.21,2.75-4.9,3.31-8.08H202.94z"/>
		<path d="M211.51,19.32h17.59v73.03h-17.59V19.32z"/>
		<path d="M276.76,19.32c5.32,0,9.93,1.04,13.81,3.12c3.88,2.08,6.84,5.01,8.88,8.81c2.04,3.8,3.06,8.23,3.06,13.29
			c0,5-1.02,9.4-3.06,13.19c-2.04,3.8-5,6.74-8.88,8.81c-3.88,2.08-8.48,3.12-13.81,3.12h-2.65L258.58,53.5h17.08
			c2.83,0,5.04-0.79,6.63-2.39c1.58-1.59,2.38-3.78,2.38-6.57c0-2.86-0.79-5.08-2.38-6.67c-1.59-1.59-3.8-2.39-6.63-2.39h-24.98
			l7.9-9.35v66.21h-17.59V19.32H276.76z"/>
		<path d="M379.29,19.32h17.59v73.03h-17.59V19.32z"/>
		<path d="M479.54,61.77c-0.62,6.43-2.55,12.06-5.78,16.89c-3.23,4.84-7.46,8.59-12.7,11.25c-5.24,2.66-11.25,3.99-18.05,3.99
			c-7.42,0-13.9-1.59-19.45-4.77c-5.55-3.18-9.87-7.63-12.96-13.34c-3.09-5.71-4.63-12.37-4.63-19.96s1.54-14.25,4.63-19.96
			c3.09-5.71,7.4-10.16,12.96-13.34c5.55-3.18,12.03-4.77,19.45-4.77c6.8,0,12.81,1.33,18.05,3.99c5.24,2.66,9.47,6.41,12.7,11.25
			c3.23,4.84,5.15,10.47,5.78,16.89h-17.67c-0.57-3.12-1.67-5.76-3.31-7.93c-1.64-2.17-3.78-3.85-6.42-5.02
			c-2.63-1.17-5.68-1.75-9.13-1.75c-3.96,0-7.39,0.83-10.28,2.48c-2.89,1.66-5.1,4.03-6.63,7.11c-1.53,3.08-2.29,6.77-2.29,11.05
			s0.76,7.97,2.29,11.05c1.53,3.08,3.74,5.45,6.63,7.11c2.89,1.65,6.31,2.48,10.28,2.48c3.46,0,6.5-0.55,9.13-1.65
			c2.63-1.1,4.77-2.76,6.42-4.97c1.64-2.21,2.75-4.9,3.31-8.08H479.54z"/>
	</g>
	<path d="M345.53,19.32c5.32,0,9.93,1.04,13.81,3.12c3.88,2.08,6.84,5.01,8.88,8.81c2.04,3.8,3.06,8.23,3.06,13.29
		c0,5-1.02,9.4-3.06,13.19c-2.04,3.8-5,6.74-8.88,8.81c-3.88,2.08-8.48,3.12-13.81,3.12h-2.65L327.35,53.5h17.08
		c2.83,0,5.04-0.79,6.63-2.39c1.58-1.59,2.38-3.78,2.38-6.57c0-2.86-0.79-5.08-2.38-6.67c-1.59-1.59-3.8-2.39-6.63-2.39h-24.98
		l7.9-9.35v66.21h-17.59V19.32H345.53z"/>
</g>
<rect x="120.9" y="29.23" class="st0" width="546.68" height="75.27"/>
<text transform="matrix(1 0 0 1 120.8961 50.8294)" class="st1"><tspan x="0" y="0" class="st2 st3 st4">Samuelson-Glushko Canadian Internet </tspan><tspan x="0" y="36" class="st2 st3 st4">Policy and Public Interest Clinic</tspan></text>
<rect x="68.04" y="14.76" transform="matrix(0.7071 0.7071 -0.7071 0.7071 47.3775 -50.8362)" class="st5" width="34.03" height="34.03"/>
<rect x="19.92" y="62.88" transform="matrix(0.7071 0.7071 -0.7071 0.7071 67.3098 -2.7153)" class="st5" width="34.03" height="34.03"/>
<g>
	
		<rect x="19.92" y="14.76" transform="matrix(0.7071 -0.7071 0.7071 0.7071 -11.6485 35.4209)" class="st6" width="34.03" height="34.03"/>
	<polygon class="st6" points="36.93,7.71 60.99,31.77 85.05,7.71 	"/>
</g>
<g>
	<g>
		<path class="st7" d="M36.93,103.95h48.12L60.99,79.89L36.93,103.95z M85.05,55.83L60.99,79.89l24.06,24.06l24.06-24.06
			L85.05,55.83z"/>
	</g>
</g>
</svg>
