<?xml version="1.0" encoding="UTF-8"?><svg id="a" xmlns="http://www.w3.org/2000/svg" viewBox="0 0 436.08859 89.656919"><rect x="29.885608" y="59.771251" width="29.885613" height="29.885613" style="fill:#346083;"/><rect x="59.77121" y=".000005" width="29.885613" height="29.885613" style="fill:#234058;"/><rect x="59.7712" y="29.885628" width="29.885613" height="29.885613" style="fill:#234058;"/><rect x="29.885588" y="29.885638" width="29.885613" height="29.885613" style="fill:#fff; opacity:.8;"/><rect x=".000005" y="29.885658" width="29.885613" height="29.885613" style="fill:#6d9dc5;"/><rect x="29.885567" y=".000056" width="29.885613" height="29.885613" style="fill:#346083;"/><rect x=".000005" y="59.771301" width="29.885613" height="29.885613" style="fill:#6d9dc5;"/><path d="m177.247763,51.387005c-.58312,6.013896-2.38549,11.283747-5.405218,15.808605-3.021621,4.525805-6.984185,8.03399-11.885799,10.524555-4.901614,2.489619-10.532128,3.735375-16.893435,3.735375-6.942534,0-13.010388-1.488091-18.203562-4.464274-5.195067-2.976183-9.235255-7.137538-12.124348-12.484065-2.889094-5.344634-4.331747-11.57152-4.331747-18.678766s1.442654-13.333186,4.331747-18.678766c2.889094-5.344634,6.929281-9.506936,12.124348-12.484065,5.193174-2.975236,11.261028-4.464274,18.203562-4.464274,6.361307,0,11.991821,1.245756,16.893435,3.735375,4.901614,2.491512,8.864178,5.999697,11.885799,10.524555,3.019728,4.525805,4.822098,9.794709,5.405218,15.808605h-16.535612c-.530109-2.915599-1.563821-5.390072-3.099244-7.425311-1.539209-2.03524-3.538477-3.600008-6.003484-4.693357-2.463113-1.09335-5.312449-1.639551-8.546113-1.639551-3.708869,0-6.916028.774338-9.61769,2.323013-2.703555,1.549622-4.77098,3.76756-6.202274,6.65192-1.431294,2.886254-2.145048,6.332908-2.145048,10.341857s.713754,7.457497,2.145048,10.341857c1.431294,2.886254,3.498719,5.102298,6.202274,6.65192,2.701662,1.548675,5.908821,2.323013,9.61769,2.323013,3.233664,0,6.083-.514963,8.546113-1.548675,2.465006-1.031819,4.464274-2.581441,6.003484-4.646973,1.535423-2.064585,2.569135-4.586389,3.099244-7.562572h16.535612Z"/><path d="m185.275126,11.659128h16.456096v68.338613h-16.456096V11.659128Z"/><path d="m246.328528,11.659128c4.981131,0,9.288266.972182,12.919512,2.915599,3.629353,1.94531,6.399172,4.692411,8.307564,8.246034,1.906499,3.553623,2.860695,7.699832,2.860695,12.437681,0,4.678211-.954196,8.793182-2.860695,12.346805-1.908392,3.553623-4.678211,6.302616-8.307564,8.246034-3.631246,1.94531-7.938381,2.915599-12.919512,2.915599h-2.482534l-14.530176-15.125143h15.978997c2.650545,0,4.717969-.743099,6.202274-2.232137,1.482412-1.488091,2.224564-3.538477,2.224564-6.151157,0-2.672317-.742152-4.752048-2.224564-6.241086-1.484305-1.488091-3.55173-2.233084-6.202274-2.233084h-23.372124l7.393126-8.746797v61.960267h-16.456096V11.659128h33.468805Z"/><path d="m342.282029,11.659128h16.456096v68.338613h-16.456096V11.659128Z"/><path d="m436.08859,51.387005c-.58312,6.013896-2.38549,11.283747-5.405218,15.808605-3.021621,4.525805-6.984185,8.03399-11.885799,10.524555-4.901614,2.489619-10.532128,3.735375-16.893435,3.735375-6.942534,0-13.010388-1.488091-18.203562-4.464274-5.195067-2.976183-9.235255-7.137538-12.124348-12.484065-2.889094-5.344634-4.331747-11.57152-4.331747-18.678766s1.442654-13.333186,4.331747-18.678766c2.889094-5.344634,6.929281-9.506936,12.124348-12.484065,5.193174-2.975236,11.261028-4.464274,18.203562-4.464274,6.361307,0,11.991821,1.245756,16.893435,3.735375,4.901614,2.491512,8.864178,5.999697,11.885799,10.524555,3.019728,4.525805,4.822098,9.794709,5.405218,15.808605h-16.535612c-.530109-2.915599-1.563821-5.390072-3.099244-7.425311-1.539209-2.03524-3.538477-3.600008-6.003484-4.693357-2.463113-1.09335-5.312449-1.639551-8.546113-1.639551-3.708869,0-6.916028.774338-9.61769,2.323013-2.703555,1.549622-4.77098,3.76756-6.202274,6.65192-1.431294,2.886254-2.145048,6.332908-2.145048,10.341857s.713754,7.457497,2.145048,10.341857c1.431294,2.886254,3.498719,5.102298,6.202274,6.65192,2.701662,1.548675,5.908821,2.323013,9.61769,2.323013,3.233664,0,6.083-.514963,8.546113-1.548675,2.465006-1.031819,4.464274-2.581441,6.003484-4.646973,1.535423-2.064585,2.569135-4.586389,3.099244-7.562572h16.535612Z"/><path d="m310.681652,11.659128c4.981131,0,9.288266.972182,12.919512,2.915599,3.629353,1.94531,6.399172,4.692411,8.307564,8.246034,1.906499,3.553623,2.860695,7.699832,2.860695,12.437681,0,4.678211-.954196,8.793182-2.860695,12.346805-1.908392,3.553623-4.678211,6.302616-8.307564,8.246034-3.631246,1.94531-7.938381,2.915599-12.919512,2.915599h-2.482534l-14.530176-15.125143h15.978997c2.650545,0,4.717969-.743099,6.202274-2.232137,1.482412-1.488091,2.224564-3.538477,2.224564-6.151157,0-2.672317-.742152-4.752048-2.224564-6.241086-1.484305-1.488091-3.55173-2.233084-6.202274-2.233084h-23.372124l7.393126-8.746797v61.960267h-16.456096V11.659128h33.468805Z"/></svg>