<?xml version="1.0" encoding="UTF-8"?><svg id="a" xmlns="http://www.w3.org/2000/svg" viewBox="0 0 466.664739 96.241863"><path d="m190.063979,54.060884c-.62313,6.42653-2.549167,12.057963-5.776088,16.893287-3.228944,4.836336-7.463393,8.585229-12.701324,11.24668-5.23793,2.66044-11.254773,3.991671-18.05255,3.991671-7.418884,0-13.903074-1.590194-19.452569-4.770583-5.551518-3.180389-9.868916-7.627268-12.95624-13.340639-3.087324-5.711347-4.628963-12.365481-4.628963-19.960379s1.541639-14.24802,4.628963-19.960379c3.087324-5.711347,7.404722-10.159238,12.95624-13.340639,5.549495-3.179377,12.033685-4.770583,19.452569-4.770583,6.797778,0,12.81462,1.331231,18.05255,3.991671,5.23793,2.662463,9.472379,6.411356,12.701324,11.24668,3.226921,4.836336,5.152958,10.466757,5.776088,16.893287h-17.670175c-.566481-3.115648-1.67112-5.759903-3.311893-7.934787-1.644819-2.174884-3.781264-3.847016-6.415403-5.015384-2.632116-1.168368-5.676954-1.752046-9.13249-1.752046-3.963347,0-7.39056.827468-10.277592,2.482403-2.889055,1.655947-5.098333,4.026065-6.627833,7.108331-1.5295,3.084289-2.292227,6.76743-2.292227,11.051446s.762727,7.96918,2.292227,11.051446c1.5295,3.084289,3.738778,5.452384,6.627833,7.108331,2.887032,1.654935,6.314245,2.482403,10.277592,2.482403,3.455537,0,6.500375-.550296,9.13249-1.654935,2.634139-1.102616,4.770583-2.758562,6.415403-4.965817,1.640773-2.206243,2.745412-4.901076,3.311893-8.081465h17.670175Z"/><path d="m198.642127,11.607145h17.585203v73.027553h-17.585203V11.607145Z"/><path d="m263.884606,11.607145c5.322903,0,9.925565,1.038887,13.805963,3.115648,3.878375,2.078785,6.838241,5.014373,8.877574,8.811822,2.03731,3.797449,3.056977,8.228143,3.056977,13.291071,0,4.999199-1.019667,9.396511-3.056977,13.19396-2.039333,3.797449-4.999199,6.73506-8.877574,8.811822-3.880398,2.078785-8.48306,3.115648-13.805963,3.115648h-2.652869l-15.52714-16.16293h17.07537c2.832407,0,5.041685-.794086,6.627833-2.385292,1.584125-1.590194,2.377199-3.781264,2.377199-6.573208,0-2.855674-.793074-5.078102-2.377199-6.669308-1.586148-1.590194-3.795426-2.386303-6.627833-2.386303h-24.975763l7.900393-9.346944v66.211568h-17.585203V11.607145h35.765212Z"/><path d="m366.421798,11.607145h17.585203v73.027553h-17.585203V11.607145Z"/><path d="m466.664739,54.060884c-.62313,6.42653-2.549167,12.057963-5.776088,16.893287-3.228944,4.836336-7.463393,8.585229-12.701324,11.24668-5.23793,2.66044-11.254773,3.991671-18.05255,3.991671-7.418884,0-13.903074-1.590194-19.452569-4.770583-5.551518-3.180389-9.868916-7.627268-12.95624-13.340639-3.087324-5.711347-4.628963-12.365481-4.628963-19.960379s1.541639-14.24802,4.628963-19.960379c3.087324-5.711347,7.404722-10.159238,12.95624-13.340639,5.549495-3.179377,12.033685-4.770583,19.452569-4.770583,6.797778,0,12.81462,1.331231,18.05255,3.991671,5.23793,2.662463,9.472379,6.411356,12.701324,11.24668,3.226921,4.836336,5.152958,10.466757,5.776088,16.893287h-17.670175c-.566481-3.115648-1.67112-5.759903-3.311893-7.934787-1.644819-2.174884-3.781264-3.847016-6.415403-5.015384-2.632116-1.168368-5.676954-1.752046-9.13249-1.752046-3.963347,0-7.39056.827468-10.277592,2.482403-2.889055,1.655947-5.098333,4.026065-6.627833,7.108331-1.5295,3.084289-2.292227,6.76743-2.292227,11.051446s.762727,7.96918,2.292227,11.051446c1.5295,3.084289,3.738778,5.452384,6.627833,7.108331,2.887032,1.654935,6.314245,2.482403,10.277592,2.482403,3.455537,0,6.500375-.550296,9.13249-1.654935,2.634139-1.102616,4.770583-2.758562,6.415403-4.965817,1.640773-2.206243,2.745412-4.901076,3.311893-8.081465h17.670175Z"/><path d="m332.653213,11.607145c5.322903,0,9.925565,1.038887,13.805963,3.115648,3.878375,2.078785,6.838241,5.014373,8.877574,8.811822,2.03731,3.797449,3.056977,8.228143,3.056977,13.291071,0,4.999199-1.019667,9.396511-3.056977,13.19396-2.039333,3.797449-4.999199,6.73506-8.877574,8.811822-3.880398,2.078785-8.48306,3.115648-13.805963,3.115648h-2.652869l-15.52714-16.16293h17.07537c2.832407,0,5.041685-.794086,6.627833-2.385292,1.584125-1.590194,2.377199-3.781264,2.377199-6.573208,0-2.855674-.793074-5.078102-2.377199-6.669308-1.586148-1.590194-3.795426-2.386303-6.627833-2.386303h-24.975763l7.900393-9.346944v66.211568h-17.585203V11.607145h35.765212Z"/><rect x="55.168043" y="7.04721" width="34.026607" height="34.026607" transform="translate(38.154809 -43.992773) rotate(45.000025)" style="fill:#ff8552;"/><rect x="7.047141" y="55.168037" width="34.026607" height="34.026607" transform="translate(58.087086 4.128137) rotate(45.000025)" style="fill:#ff8552;"/><rect x="7.047183" y="7.047182" width="34.026606" height="34.026606" transform="translate(-9.966179 24.060463) rotate(-44.999961)" style="fill:#f54900;"/><polygon points="24.060495 0 48.120939 24.060477 72.181383 .000033 24.060495 0" style="fill:#f54900;"/><path d="m24.060461,96.241835h48.12085l-24.060425-24.060425-24.060425,24.060425Zm48.12085-48.120972l-24.060486,24.060425,24.060486,24.060486,24.060425-24.060425-24.060425-24.060486Z" style="fill:#f54900;"/></svg>