<svg xmlns="http://www.w3.org/2000/svg" version="1.1" xmlns:xlink="http://www.w3.org/1999/xlink" xmlns:svgjs="http://svgjs.dev/svgjs" width="1440" height="560" preserveAspectRatio="none" viewBox="0 0 1440 560">
    <g mask="url(&quot;#SvgjsMask1012&quot;)" fill="none">
        <rect width="1440" height="560" x="0" y="0" fill="rgba(238, 240, 242, 1)"></rect>
        <path d="M-85.97 376.33L-85.97 376.33" stroke="rgba(243, 245, 247, 1)" stroke-width="1.5"></path>
        <path d="M-85.97 376.33L-108.55 554.31" stroke="rgba(243, 245, 247, 1)" stroke-width="1.5"></path>
        <path d="M-85.97 376.33L102.02 523.56" stroke="rgba(243, 245, 247, 1)" stroke-width="1.5"></path>
        <path d="M-85.97 376.33L196.54 374.01" stroke="rgba(243, 245, 247, 1)" stroke-width="1.5"></path>
        <path d="M-108.55 554.31L-108.55 554.31" stroke="rgba(243, 245, 247, 1)" stroke-width="1.5"></path>
        <path d="M-108.55 554.31L-46.03 675.53" stroke="rgba(243, 245, 247, 1)" stroke-width="1.5"></path>
        <path d="M-108.55 554.31L102.02 523.56" stroke="rgba(243, 245, 247, 1)" stroke-width="1.5"></path>
        <path d="M-46.03 675.53L-46.03 675.53" stroke="rgba(243, 245, 247, 1)" stroke-width="1.5"></path>
        <path d="M-46.03 675.53L73.05 707.44" stroke="rgba(243, 245, 247, 1)" stroke-width="1.5"></path>
        <path d="M-46.03 675.53L102.02 523.56" stroke="rgba(243, 245, 247, 1)" stroke-width="1.5"></path>
        <path d="M-46.03 675.53L201.26 645.74" stroke="rgba(243, 245, 247, 1)" stroke-width="1.5"></path>
        <path d="M-46.03 675.53L-85.97 376.33" stroke="rgba(243, 245, 247, 1)" stroke-width="1.5"></path>
        <path d="M102.02 523.56L102.02 523.56" stroke="rgba(243, 245, 247, 1)" stroke-width="1.5"></path>
        <path d="M102.02 523.56L200.79 496.4" stroke="rgba(243, 245, 247, 1)" stroke-width="1.5"></path>
        <path d="M102.02 523.56L201.26 645.74" stroke="rgba(243, 245, 247, 1)" stroke-width="1.5"></path>
        <path d="M102.02 523.56L196.54 374.01" stroke="rgba(243, 245, 247, 1)" stroke-width="1.5"></path>
        <path d="M102.02 523.56L73.05 707.44" stroke="rgba(243, 245, 247, 1)" stroke-width="1.5"></path>
        <path d="M73.05 707.44L73.05 707.44" stroke="rgba(243, 245, 247, 1)" stroke-width="1.5"></path>
        <path d="M73.05 707.44L201.26 645.74" stroke="rgba(243, 245, 247, 1)" stroke-width="1.5"></path>
        <path d="M73.05 707.44L-108.55 554.31" stroke="rgba(243, 245, 247, 1)" stroke-width="1.5"></path>
        <path d="M73.05 707.44L200.79 496.4" stroke="rgba(243, 245, 247, 1)" stroke-width="1.5"></path>
        <path d="M196.54 374.01L196.54 374.01" stroke="rgba(243, 245, 247, 1)" stroke-width="1.5"></path>
        <path d="M196.54 374.01L200.79 496.4" stroke="rgba(243, 245, 247, 1)" stroke-width="1.5"></path>
        <path d="M196.54 374.01L345.82 344.04" stroke="rgba(243, 245, 247, 1)" stroke-width="1.5"></path>
        <path d="M200.79 496.4L200.79 496.4" stroke="rgba(243, 245, 247, 1)" stroke-width="1.5"></path>
        <path d="M200.79 496.4L201.26 645.74" stroke="rgba(243, 245, 247, 1)" stroke-width="1.5"></path>
        <path d="M200.79 496.4L387.79 540.28" stroke="rgba(243, 245, 247, 1)" stroke-width="1.5"></path>
        <path d="M200.79 496.4L345.82 344.04" stroke="rgba(243, 245, 247, 1)" stroke-width="1.5"></path>
        <path d="M201.26 645.74L201.26 645.74" stroke="rgba(243, 245, 247, 1)" stroke-width="1.5"></path>
        <path d="M201.26 645.74L387.79 540.28" stroke="rgba(243, 245, 247, 1)" stroke-width="1.5"></path>
        <path d="M345.82 344.04L345.82 344.04" stroke="rgba(243, 245, 247, 1)" stroke-width="1.5"></path>
        <path d="M345.82 344.04L529.4 362.7" stroke="rgba(243, 245, 247, 1)" stroke-width="1.5"></path>
        <path d="M345.82 344.04L387.79 540.28" stroke="rgba(243, 245, 247, 1)" stroke-width="1.5"></path>
        <path d="M345.82 344.04L553.99 261.24" stroke="rgba(243, 245, 247, 1)" stroke-width="1.5"></path>
        <path d="M387.79 540.28L387.79 540.28" stroke="rgba(243, 245, 247, 1)" stroke-width="1.5"></path>
        <path d="M387.79 540.28L517.77 538.65" stroke="rgba(243, 245, 247, 1)" stroke-width="1.5"></path>
        <path d="M553.99 261.24L553.99 261.24" stroke="rgba(243, 245, 247, 1)" stroke-width="1.5"></path>
        <path d="M553.99 261.24L529.4 362.7" stroke="rgba(243, 245, 247, 1)" stroke-width="1.5"></path>
        <path d="M553.99 261.24L702.49 242.06" stroke="rgba(243, 245, 247, 1)" stroke-width="1.5"></path>
        <path d="M553.99 261.24L693.52 410.29" stroke="rgba(243, 245, 247, 1)" stroke-width="1.5"></path>
        <path d="M529.4 362.7L529.4 362.7" stroke="rgba(243, 245, 247, 1)" stroke-width="1.5"></path>
        <path d="M529.4 362.7L693.52 410.29" stroke="rgba(243, 245, 247, 1)" stroke-width="1.5"></path>
        <path d="M529.4 362.7L517.77 538.65" stroke="rgba(243, 245, 247, 1)" stroke-width="1.5"></path>
        <path d="M517.77 538.65L517.77 538.65" stroke="rgba(243, 245, 247, 1)" stroke-width="1.5"></path>
        <path d="M517.77 538.65L553.2 644.04" stroke="rgba(243, 245, 247, 1)" stroke-width="1.5"></path>
        <path d="M517.77 538.65L678.55 530.01" stroke="rgba(243, 245, 247, 1)" stroke-width="1.5"></path>
        <path d="M553.2 644.04L553.2 644.04" stroke="rgba(243, 245, 247, 1)" stroke-width="1.5"></path>
        <path d="M702.49 242.06L702.49 242.06" stroke="rgba(243, 245, 247, 1)" stroke-width="1.5"></path>
        <path d="M702.49 242.06L834.99 241.55" stroke="rgba(243, 245, 247, 1)" stroke-width="1.5"></path>
        <path d="M702.49 242.06L693.52 410.29" stroke="rgba(243, 245, 247, 1)" stroke-width="1.5"></path>
        <path d="M693.52 410.29L693.52 410.29" stroke="rgba(243, 245, 247, 1)" stroke-width="1.5"></path>
        <path d="M693.52 410.29L678.55 530.01" stroke="rgba(243, 245, 247, 1)" stroke-width="1.5"></path>
        <path d="M693.52 410.29L858.05 387.64" stroke="rgba(243, 245, 247, 1)" stroke-width="1.5"></path>
        <path d="M678.55 530.01L678.55 530.01" stroke="rgba(243, 245, 247, 1)" stroke-width="1.5"></path>
        <path d="M678.55 530.01L688.73 661.14" stroke="rgba(243, 245, 247, 1)" stroke-width="1.5"></path>
        <path d="M678.55 530.01L844.35 516.39" stroke="rgba(243, 245, 247, 1)" stroke-width="1.5"></path>
        <path d="M688.73 661.14L688.73 661.14" stroke="rgba(243, 245, 247, 1)" stroke-width="1.5"></path>
        <path d="M688.73 661.14L799.99 679.04" stroke="rgba(243, 245, 247, 1)" stroke-width="1.5"></path>
        <path d="M688.73 661.14L553.2 644.04" stroke="rgba(243, 245, 247, 1)" stroke-width="1.5"></path>
        <path d="M688.73 661.14L517.77 538.65" stroke="rgba(243, 245, 247, 1)" stroke-width="1.5"></path>
        <path d="M688.73 661.14L844.35 516.39" stroke="rgba(243, 245, 247, 1)" stroke-width="1.5"></path>
        <path d="M688.73 661.14L693.52 410.29" stroke="rgba(243, 245, 247, 1)" stroke-width="1.5"></path>
        <path d="M860.2 41.71L860.2 41.71" stroke="rgba(243, 245, 247, 1)" stroke-width="1.5"></path>
        <path d="M860.2 41.71L945.83 52.44" stroke="rgba(243, 245, 247, 1)" stroke-width="1.5"></path>
        <path d="M860.2 41.71L968.67 -106.41" stroke="rgba(243, 245, 247, 1)" stroke-width="1.5"></path>
        <path d="M860.2 41.71L834.99 241.55" stroke="rgba(243, 245, 247, 1)" stroke-width="1.5"></path>
        <path d="M860.2 41.71L955.9 232.07" stroke="rgba(243, 245, 247, 1)" stroke-width="1.5"></path>
        <path d="M860.2 41.71L702.49 242.06" stroke="rgba(243, 245, 247, 1)" stroke-width="1.5"></path>
        <path d="M834.99 241.55L834.99 241.55" stroke="rgba(243, 245, 247, 1)" stroke-width="1.5"></path>
        <path d="M834.99 241.55L955.9 232.07" stroke="rgba(243, 245, 247, 1)" stroke-width="1.5"></path>
        <path d="M834.99 241.55L858.05 387.64" stroke="rgba(243, 245, 247, 1)" stroke-width="1.5"></path>
        <path d="M858.05 387.64L858.05 387.64" stroke="rgba(243, 245, 247, 1)" stroke-width="1.5"></path>
        <path d="M858.05 387.64L844.35 516.39" stroke="rgba(243, 245, 247, 1)" stroke-width="1.5"></path>
        <path d="M858.05 387.64L975.74 521.04" stroke="rgba(243, 245, 247, 1)" stroke-width="1.5"></path>
        <path d="M858.05 387.64L955.9 232.07" stroke="rgba(243, 245, 247, 1)" stroke-width="1.5"></path>
        <path d="M858.05 387.64L702.49 242.06" stroke="rgba(243, 245, 247, 1)" stroke-width="1.5"></path>
        <path d="M844.35 516.39L844.35 516.39" stroke="rgba(243, 245, 247, 1)" stroke-width="1.5"></path>
        <path d="M844.35 516.39L975.74 521.04" stroke="rgba(243, 245, 247, 1)" stroke-width="1.5"></path>
        <path d="M799.99 679.04L799.99 679.04" stroke="rgba(243, 245, 247, 1)" stroke-width="1.5"></path>
        <path d="M799.99 679.04L950.28 695.67" stroke="rgba(243, 245, 247, 1)" stroke-width="1.5"></path>
        <path d="M799.99 679.04L844.35 516.39" stroke="rgba(243, 245, 247, 1)" stroke-width="1.5"></path>
        <path d="M799.99 679.04L678.55 530.01" stroke="rgba(243, 245, 247, 1)" stroke-width="1.5"></path>
        <path d="M968.67 -106.41L968.67 -106.41" stroke="rgba(243, 245, 247, 1)" stroke-width="1.5"></path>
        <path d="M968.67 -106.41L945.83 52.44" stroke="rgba(243, 245, 247, 1)" stroke-width="1.5"></path>
        <path d="M968.67 -106.41L1114.29 79.2" stroke="rgba(243, 245, 247, 1)" stroke-width="1.5"></path>
        <path d="M945.83 52.44L945.83 52.44" stroke="rgba(243, 245, 247, 1)" stroke-width="1.5"></path>
        <path d="M955.9 232.07L955.9 232.07" stroke="rgba(243, 245, 247, 1)" stroke-width="1.5"></path>
        <path d="M955.9 232.07L945.83 52.44" stroke="rgba(243, 245, 247, 1)" stroke-width="1.5"></path>
        <path d="M975.74 521.04L975.74 521.04" stroke="rgba(243, 245, 247, 1)" stroke-width="1.5"></path>
        <path d="M975.74 521.04L1091.67 533.31" stroke="rgba(243, 245, 247, 1)" stroke-width="1.5"></path>
        <path d="M975.74 521.04L950.28 695.67" stroke="rgba(243, 245, 247, 1)" stroke-width="1.5"></path>
        <path d="M950.28 695.67L950.28 695.67" stroke="rgba(243, 245, 247, 1)" stroke-width="1.5"></path>
        <path d="M950.28 695.67L1123.12 694.9" stroke="rgba(243, 245, 247, 1)" stroke-width="1.5"></path>
        <path d="M1114.29 79.2L1114.29 79.2" stroke="rgba(243, 245, 247, 1)" stroke-width="1.5"></path>
        <path d="M1114.29 79.2L1268.34 42.91" stroke="rgba(243, 245, 247, 1)" stroke-width="1.5"></path>
        <path d="M1114.29 79.2L945.83 52.44" stroke="rgba(243, 245, 247, 1)" stroke-width="1.5"></path>
        <path d="M1114.29 79.2L1151.71 254.82" stroke="rgba(243, 245, 247, 1)" stroke-width="1.5"></path>
        <path d="M1114.29 79.2L1255.77 190.03" stroke="rgba(243, 245, 247, 1)" stroke-width="1.5"></path>
        <path d="M1114.29 79.2L955.9 232.07" stroke="rgba(243, 245, 247, 1)" stroke-width="1.5"></path>
        <path d="M1151.71 254.82L1151.71 254.82" stroke="rgba(243, 245, 247, 1)" stroke-width="1.5"></path>
        <path d="M1151.71 254.82L1124.03 347.58" stroke="rgba(243, 245, 247, 1)" stroke-width="1.5"></path>
        <path d="M1151.71 254.82L1255.77 190.03" stroke="rgba(243, 245, 247, 1)" stroke-width="1.5"></path>
        <path d="M1151.71 254.82L1294.08 342.08" stroke="rgba(243, 245, 247, 1)" stroke-width="1.5"></path>
        <path d="M1124.03 347.58L1124.03 347.58" stroke="rgba(243, 245, 247, 1)" stroke-width="1.5"></path>
        <path d="M1124.03 347.58L1294.08 342.08" stroke="rgba(243, 245, 247, 1)" stroke-width="1.5"></path>
        <path d="M1124.03 347.58L1091.67 533.31" stroke="rgba(243, 245, 247, 1)" stroke-width="1.5"></path>
        <path d="M1124.03 347.58L955.9 232.07" stroke="rgba(243, 245, 247, 1)" stroke-width="1.5"></path>
        <path d="M1124.03 347.58L1255.77 190.03" stroke="rgba(243, 245, 247, 1)" stroke-width="1.5"></path>
        <path d="M1124.03 347.58L1277.97 492.79" stroke="rgba(243, 245, 247, 1)" stroke-width="1.5"></path>
        <path d="M1091.67 533.31L1091.67 533.31" stroke="rgba(243, 245, 247, 1)" stroke-width="1.5"></path>
        <path d="M1091.67 533.31L1123.12 694.9" stroke="rgba(243, 245, 247, 1)" stroke-width="1.5"></path>
        <path d="M1123.12 694.9L1123.12 694.9" stroke="rgba(243, 245, 247, 1)" stroke-width="1.5"></path>
        <path d="M1304.51 -67.51L1304.51 -67.51" stroke="rgba(243, 245, 247, 1)" stroke-width="1.5"></path>
        <path d="M1304.51 -67.51L1388.01 -112.11" stroke="rgba(243, 245, 247, 1)" stroke-width="1.5"></path>
        <path d="M1304.51 -67.51L1268.34 42.91" stroke="rgba(243, 245, 247, 1)" stroke-width="1.5"></path>
        <path d="M1304.51 -67.51L1397.55 50.75" stroke="rgba(243, 245, 247, 1)" stroke-width="1.5"></path>
        <path d="M1268.34 42.91L1268.34 42.91" stroke="rgba(243, 245, 247, 1)" stroke-width="1.5"></path>
        <path d="M1268.34 42.91L1397.55 50.75" stroke="rgba(243, 245, 247, 1)" stroke-width="1.5"></path>
        <path d="M1268.34 42.91L1255.77 190.03" stroke="rgba(243, 245, 247, 1)" stroke-width="1.5"></path>
        <path d="M1255.77 190.03L1255.77 190.03" stroke="rgba(243, 245, 247, 1)" stroke-width="1.5"></path>
        <path d="M1255.77 190.03L1294.08 342.08" stroke="rgba(243, 245, 247, 1)" stroke-width="1.5"></path>
        <path d="M1255.77 190.03L1411.08 241.62" stroke="rgba(243, 245, 247, 1)" stroke-width="1.5"></path>
        <path d="M1255.77 190.03L1397.55 50.75" stroke="rgba(243, 245, 247, 1)" stroke-width="1.5"></path>
        <path d="M1294.08 342.08L1294.08 342.08" stroke="rgba(243, 245, 247, 1)" stroke-width="1.5"></path>
        <path d="M1294.08 342.08L1408.17 364.75" stroke="rgba(243, 245, 247, 1)" stroke-width="1.5"></path>
        <path d="M1294.08 342.08L1277.97 492.79" stroke="rgba(243, 245, 247, 1)" stroke-width="1.5"></path>
        <path d="M1277.97 492.79L1277.97 492.79" stroke="rgba(243, 245, 247, 1)" stroke-width="1.5"></path>
        <path d="M1277.97 492.79L1436.97 511.81" stroke="rgba(243, 245, 247, 1)" stroke-width="1.5"></path>
        <path d="M1277.97 492.79L1408.17 364.75" stroke="rgba(243, 245, 247, 1)" stroke-width="1.5"></path>
        <path d="M1277.97 492.79L1298.01 679.42" stroke="rgba(243, 245, 247, 1)" stroke-width="1.5"></path>
        <path d="M1298.01 679.42L1298.01 679.42" stroke="rgba(243, 245, 247, 1)" stroke-width="1.5"></path>
        <path d="M1298.01 679.42L1419.92 653.62" stroke="rgba(243, 245, 247, 1)" stroke-width="1.5"></path>
        <path d="M1298.01 679.42L1123.12 694.9" stroke="rgba(243, 245, 247, 1)" stroke-width="1.5"></path>
        <path d="M1298.01 679.42L1436.97 511.81" stroke="rgba(243, 245, 247, 1)" stroke-width="1.5"></path>
        <path d="M1388.01 -112.11L1388.01 -112.11" stroke="rgba(243, 245, 247, 1)" stroke-width="1.5"></path>
        <path d="M1388.01 -112.11L1397.55 50.75" stroke="rgba(243, 245, 247, 1)" stroke-width="1.5"></path>
        <path d="M1388.01 -112.11L1568.3 -101.9" stroke="rgba(243, 245, 247, 1)" stroke-width="1.5"></path>
        <path d="M1388.01 -112.11L1268.34 42.91" stroke="rgba(243, 245, 247, 1)" stroke-width="1.5"></path>
        <path d="M1388.01 -112.11L1556.12 88.63" stroke="rgba(243, 245, 247, 1)" stroke-width="1.5"></path>
        <path d="M1388.01 -112.11L1255.77 190.03" stroke="rgba(243, 245, 247, 1)" stroke-width="1.5"></path>
        <path d="M1397.55 50.75L1397.55 50.75" stroke="rgba(243, 245, 247, 1)" stroke-width="1.5"></path>
        <path d="M1397.55 50.75L1556.12 88.63" stroke="rgba(243, 245, 247, 1)" stroke-width="1.5"></path>
        <path d="M1411.08 241.62L1411.08 241.62" stroke="rgba(243, 245, 247, 1)" stroke-width="1.5"></path>
        <path d="M1411.08 241.62L1408.17 364.75" stroke="rgba(243, 245, 247, 1)" stroke-width="1.5"></path>
        <path d="M1411.08 241.62L1294.08 342.08" stroke="rgba(243, 245, 247, 1)" stroke-width="1.5"></path>
        <path d="M1411.08 241.62L1596.27 261.87" stroke="rgba(243, 245, 247, 1)" stroke-width="1.5"></path>
        <path d="M1411.08 241.62L1397.55 50.75" stroke="rgba(243, 245, 247, 1)" stroke-width="1.5"></path>
        <path d="M1411.08 241.62L1567.78 351.59" stroke="rgba(243, 245, 247, 1)" stroke-width="1.5"></path>
        <path d="M1408.17 364.75L1408.17 364.75" stroke="rgba(243, 245, 247, 1)" stroke-width="1.5"></path>
        <path d="M1408.17 364.75L1436.97 511.81" stroke="rgba(243, 245, 247, 1)" stroke-width="1.5"></path>
        <path d="M1408.17 364.75L1567.78 351.59" stroke="rgba(243, 245, 247, 1)" stroke-width="1.5"></path>
        <path d="M1436.97 511.81L1436.97 511.81" stroke="rgba(243, 245, 247, 1)" stroke-width="1.5"></path>
        <path d="M1436.97 511.81L1419.92 653.62" stroke="rgba(243, 245, 247, 1)" stroke-width="1.5"></path>
        <path d="M1419.92 653.62L1419.92 653.62" stroke="rgba(243, 245, 247, 1)" stroke-width="1.5"></path>
        <path d="M1568.3 -101.9L1568.3 -101.9" stroke="rgba(243, 245, 247, 1)" stroke-width="1.5"></path>
        <path d="M1568.3 -101.9L1556.12 88.63" stroke="rgba(243, 245, 247, 1)" stroke-width="1.5"></path>
        <path d="M1568.3 -101.9L1397.55 50.75" stroke="rgba(243, 245, 247, 1)" stroke-width="1.5"></path>
        <path d="M1568.3 -101.9L1304.51 -67.51" stroke="rgba(243, 245, 247, 1)" stroke-width="1.5"></path>
        <path d="M1568.3 -101.9L1268.34 42.91" stroke="rgba(243, 245, 247, 1)" stroke-width="1.5"></path>
        <path d="M1556.12 88.63L1556.12 88.63" stroke="rgba(243, 245, 247, 1)" stroke-width="1.5"></path>
        <path d="M1556.12 88.63L1596.27 261.87" stroke="rgba(243, 245, 247, 1)" stroke-width="1.5"></path>
        <path d="M1556.12 88.63L1411.08 241.62" stroke="rgba(243, 245, 247, 1)" stroke-width="1.5"></path>
        <path d="M1596.27 261.87L1596.27 261.87" stroke="rgba(243, 245, 247, 1)" stroke-width="1.5"></path>
        <path d="M1596.27 261.87L1567.78 351.59" stroke="rgba(243, 245, 247, 1)" stroke-width="1.5"></path>
        <path d="M1567.78 351.59L1567.78 351.59" stroke="rgba(243, 245, 247, 1)" stroke-width="1.5"></path>
        <path d="M1567.78 351.59L1604.49 509.52" stroke="rgba(243, 245, 247, 1)" stroke-width="1.5"></path>
        <path d="M1604.49 509.52L1604.49 509.52" stroke="rgba(243, 245, 247, 1)" stroke-width="1.5"></path>
        <path d="M1604.49 509.52L1575.39 665.91" stroke="rgba(243, 245, 247, 1)" stroke-width="1.5"></path>
        <path d="M1604.49 509.52L1436.97 511.81" stroke="rgba(243, 245, 247, 1)" stroke-width="1.5"></path>
        <path d="M1604.49 509.52L1419.92 653.62" stroke="rgba(243, 245, 247, 1)" stroke-width="1.5"></path>
        <path d="M1604.49 509.52L1408.17 364.75" stroke="rgba(243, 245, 247, 1)" stroke-width="1.5"></path>
        <path d="M1604.49 509.52L1596.27 261.87" stroke="rgba(243, 245, 247, 1)" stroke-width="1.5"></path>
        <path d="M1575.39 665.91L1575.39 665.91" stroke="rgba(243, 245, 247, 1)" stroke-width="1.5"></path>
        <path d="M1575.39 665.91L1419.92 653.62" stroke="rgba(243, 245, 247, 1)" stroke-width="1.5"></path>
        <path d="M1575.39 665.91L1436.97 511.81" stroke="rgba(243, 245, 247, 1)" stroke-width="1.5"></path>
        <path d="M1575.39 665.91L1298.01 679.42" stroke="rgba(243, 245, 247, 1)" stroke-width="1.5"></path>
        <path d="M1575.39 665.91L1567.78 351.59" stroke="rgba(243, 245, 247, 1)" stroke-width="1.5"></path>
        <circle r="5" cx="-85.97" cy="376.33" fill="rgba(243, 245, 247, 1)"></circle>
        <circle r="5" cx="-108.55" cy="554.31" fill="rgba(243, 245, 247, 1)"></circle>
        <circle r="5" cx="-46.03" cy="675.53" fill="rgba(243, 245, 247, 1)"></circle>
        <circle r="5" cx="102.02" cy="523.56" fill="rgba(243, 245, 247, 1)"></circle>
        <circle r="5" cx="73.05" cy="707.44" fill="rgba(243, 245, 247, 1)"></circle>
        <circle r="5" cx="196.54" cy="374.01" fill="rgba(243, 245, 247, 1)"></circle>
        <circle r="5" cx="200.79" cy="496.4" fill="rgba(243, 245, 247, 1)"></circle>
        <circle r="5" cx="201.26" cy="645.74" fill="rgba(243, 245, 247, 1)"></circle>
        <circle r="5" cx="345.82" cy="344.04" fill="rgba(243, 245, 247, 1)"></circle>
        <circle r="5" cx="387.79" cy="540.28" fill="rgba(243, 245, 247, 1)"></circle>
        <circle r="5" cx="553.99" cy="261.24" fill="rgba(243, 245, 247, 1)"></circle>
        <circle r="5" cx="529.4" cy="362.7" fill="rgba(243, 245, 247, 1)"></circle>
        <circle r="5" cx="517.77" cy="538.65" fill="rgba(243, 245, 247, 1)"></circle>
        <circle r="5" cx="553.2" cy="644.04" fill="rgba(243, 245, 247, 1)"></circle>
        <circle r="5" cx="702.49" cy="242.06" fill="rgba(243, 245, 247, 1)"></circle>
        <circle r="5" cx="693.52" cy="410.29" fill="rgba(243, 245, 247, 1)"></circle>
        <circle r="5" cx="678.55" cy="530.01" fill="rgba(243, 245, 247, 1)"></circle>
        <circle r="5" cx="688.73" cy="661.14" fill="rgba(243, 245, 247, 1)"></circle>
        <circle r="5" cx="860.2" cy="41.71" fill="rgba(243, 245, 247, 1)"></circle>
        <circle r="5" cx="834.99" cy="241.55" fill="rgba(243, 245, 247, 1)"></circle>
        <circle r="5" cx="858.05" cy="387.64" fill="rgba(243, 245, 247, 1)"></circle>
        <circle r="5" cx="844.35" cy="516.39" fill="rgba(243, 245, 247, 1)"></circle>
        <circle r="5" cx="799.99" cy="679.04" fill="rgba(243, 245, 247, 1)"></circle>
        <circle r="5" cx="968.67" cy="-106.41" fill="rgba(243, 245, 247, 1)"></circle>
        <circle r="5" cx="945.83" cy="52.44" fill="rgba(243, 245, 247, 1)"></circle>
        <circle r="5" cx="955.9" cy="232.07" fill="rgba(243, 245, 247, 1)"></circle>
        <circle r="5" cx="975.74" cy="521.04" fill="rgba(243, 245, 247, 1)"></circle>
        <circle r="5" cx="950.28" cy="695.67" fill="rgba(243, 245, 247, 1)"></circle>
        <circle r="5" cx="1114.29" cy="79.2" fill="rgba(243, 245, 247, 1)"></circle>
        <circle r="5" cx="1151.71" cy="254.82" fill="rgba(243, 245, 247, 1)"></circle>
        <circle r="5" cx="1124.03" cy="347.58" fill="rgba(243, 245, 247, 1)"></circle>
        <circle r="5" cx="1091.67" cy="533.31" fill="rgba(243, 245, 247, 1)"></circle>
        <circle r="5" cx="1123.12" cy="694.9" fill="rgba(243, 245, 247, 1)"></circle>
        <circle r="5" cx="1304.51" cy="-67.51" fill="rgba(243, 245, 247, 1)"></circle>
        <circle r="5" cx="1268.34" cy="42.91" fill="rgba(243, 245, 247, 1)"></circle>
        <circle r="5" cx="1255.77" cy="190.03" fill="rgba(243, 245, 247, 1)"></circle>
        <circle r="5" cx="1294.08" cy="342.08" fill="rgba(243, 245, 247, 1)"></circle>
        <circle r="5" cx="1277.97" cy="492.79" fill="rgba(243, 245, 247, 1)"></circle>
        <circle r="5" cx="1298.01" cy="679.42" fill="rgba(243, 245, 247, 1)"></circle>
        <circle r="5" cx="1388.01" cy="-112.11" fill="rgba(243, 245, 247, 1)"></circle>
        <circle r="5" cx="1397.55" cy="50.75" fill="rgba(243, 245, 247, 1)"></circle>
        <circle r="5" cx="1411.08" cy="241.62" fill="rgba(243, 245, 247, 1)"></circle>
        <circle r="5" cx="1408.17" cy="364.75" fill="rgba(243, 245, 247, 1)"></circle>
        <circle r="5" cx="1436.97" cy="511.81" fill="rgba(243, 245, 247, 1)"></circle>
        <circle r="5" cx="1419.92" cy="653.62" fill="rgba(243, 245, 247, 1)"></circle>
        <circle r="5" cx="1568.3" cy="-101.9" fill="rgba(243, 245, 247, 1)"></circle>
        <circle r="5" cx="1556.12" cy="88.63" fill="rgba(243, 245, 247, 1)"></circle>
        <circle r="5" cx="1596.27" cy="261.87" fill="rgba(243, 245, 247, 1)"></circle>
        <circle r="5" cx="1567.78" cy="351.59" fill="rgba(243, 245, 247, 1)"></circle>
        <circle r="5" cx="1604.49" cy="509.52" fill="rgba(243, 245, 247, 1)"></circle>
        <circle r="5" cx="1575.39" cy="665.91" fill="rgba(243, 245, 247, 1)"></circle>
        <path d="M70.44 528.02L70.44 528.02" stroke="hsl(0, 0%, 100%)" stroke-width="1.5"></path>
        <path d="M70.44 528.02L61.49 651.83" stroke="hsl(0, 0%, 100%)" stroke-width="1.5"></path>
        <path d="M70.44 528.02L233.05 501.9" stroke="hsl(0, 0%, 100%)" stroke-width="1.5"></path>
        <path d="M70.44 528.02L-111.98 512.57" stroke="hsl(0, 0%, 100%)" stroke-width="1.5"></path>
        <path d="M388.56 547.3L388.56 547.3" stroke="hsl(0, 0%, 100%)" stroke-width="1.5"></path>
        <path d="M388.56 547.3L509.86 550.52" stroke="hsl(0, 0%, 100%)" stroke-width="1.5"></path>
        <path d="M388.56 547.3L379.49 706.47" stroke="hsl(0, 0%, 100%)" stroke-width="1.5"></path>
        <path d="M388.56 547.3L233.05 501.9" stroke="hsl(0, 0%, 100%)" stroke-width="1.5"></path>
        <path d="M666.43 674.12L666.43 674.12" stroke="hsl(0, 0%, 100%)" stroke-width="1.5"></path>
        <path d="M666.43 674.12L535.1 706.13" stroke="hsl(0, 0%, 100%)" stroke-width="1.5"></path>
        <path d="M666.43 674.12L657.24 492.35" stroke="hsl(0, 0%, 100%)" stroke-width="1.5"></path>
        <path d="M666.43 674.12L509.86 550.52" stroke="hsl(0, 0%, 100%)" stroke-width="1.5"></path>
        <path d="M666.43 674.12L817.58 522.16" stroke="hsl(0, 0%, 100%)" stroke-width="1.5"></path>
        <path d="M666.43 674.12L643.64 387.99" stroke="hsl(0, 0%, 100%)" stroke-width="1.5"></path>
        <path d="M666.43 674.12L379.49 706.47" stroke="hsl(0, 0%, 100%)" stroke-width="1.5"></path>
        <path d="M1120.35 517.1L1120.35 517.1" stroke="hsl(0, 0%, 100%)" stroke-width="1.5"></path>
        <path d="M1120.35 517.1L970.31 549.68" stroke="hsl(0, 0%, 100%)" stroke-width="1.5"></path>
        <path d="M1120.35 517.1L1001.83 640.3" stroke="hsl(0, 0%, 100%)" stroke-width="1.5"></path>
        <path d="M1120.35 517.1L1100.01 342.5" stroke="hsl(0, 0%, 100%)" stroke-width="1.5"></path>
        <path d="M1120.35 517.1L1268.43 408.81" stroke="hsl(0, 0%, 100%)" stroke-width="1.5"></path>
        <path d="M1120.35 517.1L1130.86 702.69" stroke="hsl(0, 0%, 100%)" stroke-width="1.5"></path>
        <path d="M1120.35 517.1L1308.91 503" stroke="hsl(0, 0%, 100%)" stroke-width="1.5"></path>
        <path d="M1265.45 708.06L1265.45 708.06" stroke="hsl(0, 0%, 100%)" stroke-width="1.5"></path>
        <path d="M1265.45 708.06L1130.86 702.69" stroke="hsl(0, 0%, 100%)" stroke-width="1.5"></path>
        <path d="M1265.45 708.06L1419.64 644.43" stroke="hsl(0, 0%, 100%)" stroke-width="1.5"></path>
        <path d="M1576.8 77.82L1576.8 77.82" stroke="hsl(0, 0%, 100%)" stroke-width="1.5"></path>
        <path d="M1576.8 77.82L1422.47 63.74" stroke="hsl(0, 0%, 100%)" stroke-width="1.5"></path>
        <path d="M1576.8 77.82L1576.12 -98.34" stroke="hsl(0, 0%, 100%)" stroke-width="1.5"></path>
        <path d="M1576.8 77.82L1442.08 -46.75" stroke="hsl(0, 0%, 100%)" stroke-width="1.5"></path>
        <path d="M1576.8 77.82L1294.57 238.67" stroke="hsl(0, 0%, 100%)" stroke-width="1.5"></path>
        <path d="M1550.65 669.81L1550.65 669.81" stroke="hsl(0, 0%, 100%)" stroke-width="1.5"></path>
        <path d="M1550.65 669.81L1419.64 644.43" stroke="hsl(0, 0%, 100%)" stroke-width="1.5"></path>
        <path d="M1550.65 669.81L1426.96 501.2" stroke="hsl(0, 0%, 100%)" stroke-width="1.5"></path>
        <path d="M1550.65 669.81L1544.78 401.97" stroke="hsl(0, 0%, 100%)" stroke-width="1.5"></path>
        <path d="M-111.98 512.57L-111.98 512.57" stroke="hsl(0, 0%, 100%)" stroke-width="1.5"></path>
        <path d="M-111.98 512.57L-96.54 680.99" stroke="hsl(0, 0%, 100%)" stroke-width="1.5"></path>
        <path d="M-111.98 512.57L61.49 651.83" stroke="hsl(0, 0%, 100%)" stroke-width="1.5"></path>
        <path d="M-111.98 512.57L233.05 501.9" stroke="hsl(0, 0%, 100%)" stroke-width="1.5"></path>
        <path d="M-96.54 680.99L-96.54 680.99" stroke="hsl(0, 0%, 100%)" stroke-width="1.5"></path>
        <path d="M-96.54 680.99L61.49 651.83" stroke="hsl(0, 0%, 100%)" stroke-width="1.5"></path>
        <path d="M-96.54 680.99L70.44 528.02" stroke="hsl(0, 0%, 100%)" stroke-width="1.5"></path>
        <path d="M-96.54 680.99L255.44 679.69" stroke="hsl(0, 0%, 100%)" stroke-width="1.5"></path>
        <path d="M-96.54 680.99L233.05 501.9" stroke="hsl(0, 0%, 100%)" stroke-width="1.5"></path>
        <path d="M-96.54 680.99L379.49 706.47" stroke="hsl(0, 0%, 100%)" stroke-width="1.5"></path>
        <path d="M61.49 651.83L61.49 651.83" stroke="hsl(0, 0%, 100%)" stroke-width="1.5"></path>
        <path d="M61.49 651.83L255.44 679.69" stroke="hsl(0, 0%, 100%)" stroke-width="1.5"></path>
        <path d="M61.49 651.83L233.05 501.9" stroke="hsl(0, 0%, 100%)" stroke-width="1.5"></path>
        <path d="M61.49 651.83L379.49 706.47" stroke="hsl(0, 0%, 100%)" stroke-width="1.5"></path>
        <path d="M233.05 501.9L233.05 501.9" stroke="hsl(0, 0%, 100%)" stroke-width="1.5"></path>
        <path d="M233.05 501.9L255.44 679.69" stroke="hsl(0, 0%, 100%)" stroke-width="1.5"></path>
        <path d="M255.44 679.69L255.44 679.69" stroke="hsl(0, 0%, 100%)" stroke-width="1.5"></path>
        <path d="M255.44 679.69L379.49 706.47" stroke="hsl(0, 0%, 100%)" stroke-width="1.5"></path>
        <path d="M255.44 679.69L388.56 547.3" stroke="hsl(0, 0%, 100%)" stroke-width="1.5"></path>
        <path d="M379.49 706.47L379.49 706.47" stroke="hsl(0, 0%, 100%)" stroke-width="1.5"></path>
        <path d="M379.49 706.47L535.1 706.13" stroke="hsl(0, 0%, 100%)" stroke-width="1.5"></path>
        <path d="M509.86 550.52L509.86 550.52" stroke="hsl(0, 0%, 100%)" stroke-width="1.5"></path>
        <path d="M509.86 550.52L535.1 706.13" stroke="hsl(0, 0%, 100%)" stroke-width="1.5"></path>
        <path d="M535.1 706.13L535.1 706.13" stroke="hsl(0, 0%, 100%)" stroke-width="1.5"></path>
        <path d="M535.1 706.13L388.56 547.3" stroke="hsl(0, 0%, 100%)" stroke-width="1.5"></path>
        <path d="M535.1 706.13L657.24 492.35" stroke="hsl(0, 0%, 100%)" stroke-width="1.5"></path>
        <path d="M643.64 387.99L643.64 387.99" stroke="hsl(0, 0%, 100%)" stroke-width="1.5"></path>
        <path d="M643.64 387.99L657.24 492.35" stroke="hsl(0, 0%, 100%)" stroke-width="1.5"></path>
        <path d="M643.64 387.99L848.54 388.61" stroke="hsl(0, 0%, 100%)" stroke-width="1.5"></path>
        <path d="M643.64 387.99L509.86 550.52" stroke="hsl(0, 0%, 100%)" stroke-width="1.5"></path>
        <path d="M643.64 387.99L817.58 522.16" stroke="hsl(0, 0%, 100%)" stroke-width="1.5"></path>
        <path d="M643.64 387.99L388.56 547.3" stroke="hsl(0, 0%, 100%)" stroke-width="1.5"></path>
        <path d="M657.24 492.35L657.24 492.35" stroke="hsl(0, 0%, 100%)" stroke-width="1.5"></path>
        <path d="M657.24 492.35L509.86 550.52" stroke="hsl(0, 0%, 100%)" stroke-width="1.5"></path>
        <path d="M657.24 492.35L817.58 522.16" stroke="hsl(0, 0%, 100%)" stroke-width="1.5"></path>
        <path d="M657.24 492.35L848.54 388.61" stroke="hsl(0, 0%, 100%)" stroke-width="1.5"></path>
        <path d="M848.54 388.61L848.54 388.61" stroke="hsl(0, 0%, 100%)" stroke-width="1.5"></path>
        <path d="M848.54 388.61L960.28 402.41" stroke="hsl(0, 0%, 100%)" stroke-width="1.5"></path>
        <path d="M848.54 388.61L817.58 522.16" stroke="hsl(0, 0%, 100%)" stroke-width="1.5"></path>
        <path d="M848.54 388.61L970.31 549.68" stroke="hsl(0, 0%, 100%)" stroke-width="1.5"></path>
        <path d="M817.58 522.16L817.58 522.16" stroke="hsl(0, 0%, 100%)" stroke-width="1.5"></path>
        <path d="M817.58 522.16L970.31 549.68" stroke="hsl(0, 0%, 100%)" stroke-width="1.5"></path>
        <path d="M817.58 522.16L960.28 402.41" stroke="hsl(0, 0%, 100%)" stroke-width="1.5"></path>
        <path d="M960.28 402.41L960.28 402.41" stroke="hsl(0, 0%, 100%)" stroke-width="1.5"></path>
        <path d="M960.28 402.41L970.31 549.68" stroke="hsl(0, 0%, 100%)" stroke-width="1.5"></path>
        <path d="M960.28 402.41L1100.01 342.5" stroke="hsl(0, 0%, 100%)" stroke-width="1.5"></path>
        <path d="M960.28 402.41L1120.35 517.1" stroke="hsl(0, 0%, 100%)" stroke-width="1.5"></path>
        <path d="M970.31 549.68L970.31 549.68" stroke="hsl(0, 0%, 100%)" stroke-width="1.5"></path>
        <path d="M970.31 549.68L1001.83 640.3" stroke="hsl(0, 0%, 100%)" stroke-width="1.5"></path>
        <path d="M1001.83 640.3L1001.83 640.3" stroke="hsl(0, 0%, 100%)" stroke-width="1.5"></path>
        <path d="M1001.83 640.3L1130.86 702.69" stroke="hsl(0, 0%, 100%)" stroke-width="1.5"></path>
        <path d="M1132.08 246.09L1132.08 246.09" stroke="hsl(0, 0%, 100%)" stroke-width="1.5"></path>
        <path d="M1132.08 246.09L1100.01 342.5" stroke="hsl(0, 0%, 100%)" stroke-width="1.5"></path>
        <path d="M1132.08 246.09L1294.57 238.67" stroke="hsl(0, 0%, 100%)" stroke-width="1.5"></path>
        <path d="M1100.01 342.5L1100.01 342.5" stroke="hsl(0, 0%, 100%)" stroke-width="1.5"></path>
        <path d="M1100.01 342.5L1268.43 408.81" stroke="hsl(0, 0%, 100%)" stroke-width="1.5"></path>
        <path d="M1130.86 702.69L1130.86 702.69" stroke="hsl(0, 0%, 100%)" stroke-width="1.5"></path>
        <path d="M1239.1 -42.51L1239.1 -42.51" stroke="hsl(0, 0%, 100%)" stroke-width="1.5"></path>
        <path d="M1239.1 -42.51L1239.61 106.63" stroke="hsl(0, 0%, 100%)" stroke-width="1.5"></path>
        <path d="M1239.1 -42.51L1442.08 -46.75" stroke="hsl(0, 0%, 100%)" stroke-width="1.5"></path>
        <path d="M1239.1 -42.51L1422.47 63.74" stroke="hsl(0, 0%, 100%)" stroke-width="1.5"></path>
        <path d="M1239.1 -42.51L1294.57 238.67" stroke="hsl(0, 0%, 100%)" stroke-width="1.5"></path>
        <path d="M1239.61 106.63L1239.61 106.63" stroke="hsl(0, 0%, 100%)" stroke-width="1.5"></path>
        <path d="M1239.61 106.63L1294.57 238.67" stroke="hsl(0, 0%, 100%)" stroke-width="1.5"></path>
        <path d="M1239.61 106.63L1132.08 246.09" stroke="hsl(0, 0%, 100%)" stroke-width="1.5"></path>
        <path d="M1239.61 106.63L1422.47 63.74" stroke="hsl(0, 0%, 100%)" stroke-width="1.5"></path>
        <path d="M1294.57 238.67L1294.57 238.67" stroke="hsl(0, 0%, 100%)" stroke-width="1.5"></path>
        <path d="M1294.57 238.67L1268.43 408.81" stroke="hsl(0, 0%, 100%)" stroke-width="1.5"></path>
        <path d="M1294.57 238.67L1411.62 375.28" stroke="hsl(0, 0%, 100%)" stroke-width="1.5"></path>
        <path d="M1268.43 408.81L1268.43 408.81" stroke="hsl(0, 0%, 100%)" stroke-width="1.5"></path>
        <path d="M1268.43 408.81L1308.91 503" stroke="hsl(0, 0%, 100%)" stroke-width="1.5"></path>
        <path d="M1268.43 408.81L1411.62 375.28" stroke="hsl(0, 0%, 100%)" stroke-width="1.5"></path>
        <path d="M1308.91 503L1308.91 503" stroke="hsl(0, 0%, 100%)" stroke-width="1.5"></path>
        <path d="M1308.91 503L1426.96 501.2" stroke="hsl(0, 0%, 100%)" stroke-width="1.5"></path>
        <path d="M1308.91 503L1411.62 375.28" stroke="hsl(0, 0%, 100%)" stroke-width="1.5"></path>
        <path d="M1308.91 503L1419.64 644.43" stroke="hsl(0, 0%, 100%)" stroke-width="1.5"></path>
        <path d="M1442.08 -46.75L1442.08 -46.75" stroke="hsl(0, 0%, 100%)" stroke-width="1.5"></path>
        <path d="M1442.08 -46.75L1422.47 63.74" stroke="hsl(0, 0%, 100%)" stroke-width="1.5"></path>
        <path d="M1442.08 -46.75L1576.12 -98.34" stroke="hsl(0, 0%, 100%)" stroke-width="1.5"></path>
        <path d="M1422.47 63.74L1422.47 63.74" stroke="hsl(0, 0%, 100%)" stroke-width="1.5"></path>
        <path d="M1411.62 375.28L1411.62 375.28" stroke="hsl(0, 0%, 100%)" stroke-width="1.5"></path>
        <path d="M1411.62 375.28L1426.96 501.2" stroke="hsl(0, 0%, 100%)" stroke-width="1.5"></path>
        <path d="M1411.62 375.28L1544.78 401.97" stroke="hsl(0, 0%, 100%)" stroke-width="1.5"></path>
        <path d="M1426.96 501.2L1426.96 501.2" stroke="hsl(0, 0%, 100%)" stroke-width="1.5"></path>
        <path d="M1426.96 501.2L1419.64 644.43" stroke="hsl(0, 0%, 100%)" stroke-width="1.5"></path>
        <path d="M1426.96 501.2L1544.78 401.97" stroke="hsl(0, 0%, 100%)" stroke-width="1.5"></path>
        <path d="M1426.96 501.2L1268.43 408.81" stroke="hsl(0, 0%, 100%)" stroke-width="1.5"></path>
        <path d="M1419.64 644.43L1419.64 644.43" stroke="hsl(0, 0%, 100%)" stroke-width="1.5"></path>
        <path d="M1576.12 -98.34L1576.12 -98.34" stroke="hsl(0, 0%, 100%)" stroke-width="1.5"></path>
        <path d="M1576.12 -98.34L1422.47 63.74" stroke="hsl(0, 0%, 100%)" stroke-width="1.5"></path>
        <path d="M1576.12 -98.34L1239.1 -42.51" stroke="hsl(0, 0%, 100%)" stroke-width="1.5"></path>
        <path d="M1576.12 -98.34L1239.61 106.63" stroke="hsl(0, 0%, 100%)" stroke-width="1.5"></path>
        <path d="M1576.12 -98.34L1294.57 238.67" stroke="hsl(0, 0%, 100%)" stroke-width="1.5"></path>
        <path d="M1544.78 401.97L1544.78 401.97" stroke="hsl(0, 0%, 100%)" stroke-width="1.5"></path>
        <path d="M1544.78 401.97L1308.91 503" stroke="hsl(0, 0%, 100%)" stroke-width="1.5"></path>
        <circle r="25" cx="70.44" cy="528.02" fill="url(&quot;#SvgjsRadialGradient1013&quot;)"></circle>
        <circle r="25" cx="388.56" cy="547.3" fill="url(&quot;#SvgjsRadialGradient1013&quot;)"></circle>
        <circle r="25" cx="666.43" cy="674.12" fill="url(&quot;#SvgjsRadialGradient1013&quot;)"></circle>
        <circle r="25" cx="1120.35" cy="517.1" fill="url(&quot;#SvgjsRadialGradient1013&quot;)"></circle>
        <circle r="25" cx="1265.45" cy="708.06" fill="url(&quot;#SvgjsRadialGradient1013&quot;)"></circle>
        <circle r="25" cx="1576.8" cy="77.82" fill="url(&quot;#SvgjsRadialGradient1013&quot;)"></circle>
        <circle r="25" cx="1550.65" cy="669.81" fill="url(&quot;#SvgjsRadialGradient1013&quot;)"></circle>
        <circle r="5" cx="-111.98" cy="512.57" fill="#ffffff"></circle>
        <circle r="5" cx="-96.54" cy="680.99" fill="#ffffff"></circle>
        <circle r="5" cx="61.49" cy="651.83" fill="#ffffff"></circle>
        <circle r="5" cx="233.05" cy="501.9" fill="#ffffff"></circle>
        <circle r="5" cx="255.44" cy="679.69" fill="#ffffff"></circle>
        <circle r="5" cx="379.49" cy="706.47" fill="#ffffff"></circle>
        <circle r="5" cx="509.86" cy="550.52" fill="#ffffff"></circle>
        <circle r="5" cx="535.1" cy="706.13" fill="#ffffff"></circle>
        <circle r="5" cx="643.64" cy="387.99" fill="#ffffff"></circle>
        <circle r="5" cx="657.24" cy="492.35" fill="#ffffff"></circle>
        <circle r="5" cx="848.54" cy="388.61" fill="#ffffff"></circle>
        <circle r="5" cx="817.58" cy="522.16" fill="#ffffff"></circle>
        <circle r="5" cx="960.28" cy="402.41" fill="#ffffff"></circle>
        <circle r="5" cx="970.31" cy="549.68" fill="#ffffff"></circle>
        <circle r="5" cx="1001.83" cy="640.3" fill="#ffffff"></circle>
        <circle r="5" cx="1132.08" cy="246.09" fill="#ffffff"></circle>
        <circle r="5" cx="1100.01" cy="342.5" fill="#ffffff"></circle>
        <circle r="5" cx="1130.86" cy="702.69" fill="#ffffff"></circle>
        <circle r="5" cx="1239.1" cy="-42.51" fill="#ffffff"></circle>
        <circle r="5" cx="1239.61" cy="106.63" fill="#ffffff"></circle>
        <circle r="5" cx="1294.57" cy="238.67" fill="#ffffff"></circle>
        <circle r="5" cx="1268.43" cy="408.81" fill="#ffffff"></circle>
        <circle r="5" cx="1308.91" cy="503" fill="#ffffff"></circle>
        <circle r="5" cx="1442.08" cy="-46.75" fill="#ffffff"></circle>
        <circle r="5" cx="1422.47" cy="63.74" fill="#ffffff"></circle>
        <circle r="5" cx="1411.62" cy="375.28" fill="#ffffff"></circle>
        <circle r="5" cx="1426.96" cy="501.2" fill="#ffffff"></circle>
        <circle r="5" cx="1419.64" cy="644.43" fill="#ffffff"></circle>
        <circle r="5" cx="1576.12" cy="-98.34" fill="#ffffff"></circle>
        <circle r="5" cx="1544.78" cy="401.97" fill="#ffffff"></circle>
    </g>
    <defs>
        <mask id="SvgjsMask1012">
            <rect width="1440" height="560" fill="#ffffff"></rect>
        </mask>
        <radialGradient id="SvgjsRadialGradient1013">
            <stop stop-color="#ffffff" offset="0.1"></stop>
            <stop stop-color="rgba(255, 255, 255, 1)" offset="0.2"></stop>
            <stop stop-color="rgba(255, 255, 255, 0)" offset="1"></stop>
        </radialGradient>
    </defs>
</svg>