<?xml version="1.0" encoding="utf-8"?>
<!-- Generator: Adobe Illustrator 27.8.0, SVG Export Plug-In . SVG Version: 6.00 Build 0)  -->
<svg version="1.1" id="Layer_1" xmlns="http://www.w3.org/2000/svg" xmlns:xlink="http://www.w3.org/1999/xlink" x="0px" y="0px"
	 viewBox="0 0 200 200" style="enable-background:new 0 0 200 200;" xml:space="preserve">
<style type="text/css">
	.st0{opacity:0.54;}
	.st1{fill:#06D6A0;}
</style>
<g class="st0">
	<path class="st1" d="M6.9,114.1L7,6.9c0-2.8,3.5-4.1,5.6-2.1l81.8,76.6c1.3,1.2,2,2.8,2,4.5l-0.1,107.2c0,2.8-3.5,4.1-5.6,2.1
		L9,118.6C7.7,117.4,7,115.8,6.9,114.1z"/>
</g>
<g>
	<path class="st1" d="M193.1,114.1L193,6.9c0-2.8-3.5-4.1-5.6-2.1l-81.8,76.6c-1.3,1.2-2,2.8-2,4.5l0.1,107.2c0,2.8,3.5,4.1,5.6,2.1
		l81.7-76.6C192.3,117.4,193,115.8,193.1,114.1z"/>
</g>
</svg>
